<svg width="519" height="45" viewBox="0 0 519 45" fill="none" xmlns="http://www.w3.org/2000/svg">
<path fill-rule="evenodd" clip-rule="evenodd" d="M35.6068 17.7945C35.6068 27.6225 27.6354 35.5906 17.8034 35.5906C7.97143 35.5906 0 27.6225 0 17.7945C0 7.96659 7.97143 0 17.8034 0C27.6354 0 35.6068 7.96659 35.6068 17.7945Z" fill="#353132"/>
<path d="M17.9723 23.8647H12.5741C12.201 23.8647 11.8997 23.5619 11.8997 23.1906C11.8997 22.8177 12.201 22.5149 12.5741 22.5149H17.9723C18.3454 22.5149 18.6467 22.8177 18.6467 23.1906C18.6467 23.5619 18.3454 23.8647 17.9723 23.8647ZM12.5741 18.4702H20.6699C21.0429 18.4702 21.3458 18.7714 21.3458 19.1443C21.3458 19.5156 21.0429 19.8184 20.6699 19.8184H12.5741C12.201 19.8184 11.8997 19.5156 11.8997 19.1443C11.8997 18.7714 12.201 18.4702 12.5741 18.4702ZM12.5741 14.424H23.369C23.742 14.424 24.0434 14.7236 24.0434 15.0981C24.0434 15.4694 23.742 15.7722 23.369 15.7722H12.5741C12.201 15.7722 11.8997 15.4694 11.8997 15.0981C11.8997 14.7236 12.201 14.424 12.5741 14.424ZM12.5741 10.3331H19.3211C19.6942 10.3331 19.9955 10.6343 19.9955 11.0056C19.9955 11.3801 19.6942 11.6797 19.3211 11.6797H12.5741C12.201 11.6797 11.8997 11.3801 11.8997 11.0056C11.8997 10.6343 12.201 10.3331 12.5741 10.3331ZM25.4192 26.7109L22.9401 27.785C22.2418 28.0862 21.4335 27.9794 20.8357 27.4774C20.2442 26.9834 19.9875 26.2089 20.1677 25.4583L20.7942 22.8336C20.9154 22.33 21.1561 21.8519 21.4893 21.4535L26.7425 15.2399V11.6797H22.0202C21.6471 11.6797 21.3458 11.3801 21.3458 11.0056V6.28687H11.2253C10.1093 6.28687 9.20215 7.19366 9.20215 8.3092V27.2814C9.20215 28.3986 10.1093 29.3053 11.2253 29.3053H24.7194C25.8338 29.3053 26.7425 28.3986 26.7425 27.2814V25.6862L26.6548 25.7914C26.3232 26.185 25.8959 26.5037 25.4192 26.7109Z" fill="white"/>
<path fill-rule="evenodd" clip-rule="evenodd" d="M3.96973 42.9232V44.4496H518.686V42.9232H3.96973Z" fill="#656263"/>
<path d="M68.6362 12.7436H65.7328C65.6797 12.368 65.5715 12.0343 65.408 11.7427C65.2444 11.4466 65.0345 11.1947 64.7782 10.987C64.5219 10.7793 64.2258 10.6202 63.89 10.5097C63.5585 10.3992 63.1984 10.344 62.8095 10.344C62.1068 10.344 61.4948 10.5186 60.9733 10.8677C60.4518 11.2124 60.0475 11.7162 59.7602 12.379C59.473 13.0375 59.3294 13.8374 59.3294 14.7787C59.3294 15.7465 59.473 16.5596 59.7602 17.2181C60.0519 17.8765 60.4585 18.3737 60.9799 18.7095C61.5014 19.0454 62.1046 19.2133 62.7896 19.2133C63.1741 19.2133 63.5298 19.1625 63.8568 19.0609C64.1883 18.9592 64.4821 18.8112 64.7384 18.6167C64.9948 18.4179 65.2069 18.177 65.3748 17.8942C65.5472 17.6114 65.6665 17.2888 65.7328 16.9264L68.6362 16.9396C68.561 17.5628 68.3732 18.1638 68.0727 18.7427C67.7766 19.3172 67.3767 19.832 66.8729 20.2872C66.3735 20.7379 65.777 21.0959 65.0831 21.3611C64.3937 21.6218 63.6138 21.7521 62.7432 21.7521C61.5323 21.7521 60.4496 21.4782 59.4951 20.9302C58.5449 20.3822 57.7937 19.589 57.2413 18.5504C56.6933 17.5119 56.4193 16.2547 56.4193 14.7787C56.4193 13.2982 56.6977 12.0388 57.2545 11.0003C57.8114 9.96175 58.567 9.17071 59.5216 8.62715C60.4761 8.07917 61.55 7.80518 62.7432 7.80518C63.5298 7.80518 64.259 7.91566 64.9307 8.13662C65.6068 8.35758 66.2056 8.68018 66.7271 9.10442C67.2485 9.52425 67.6728 10.0391 67.9998 10.6489C68.3312 11.2588 68.5434 11.957 68.6362 12.7436Z" fill="#353132"/>
<path d="M70.6944 21.5665V7.99079H79.8421V10.3573H73.5647V13.5921H79.3715V15.9586H73.5647V19.2001H79.8687V21.5665H70.6944Z" fill="#353132"/>
<path d="M82.1241 21.5665V7.99079H87.4802C88.5054 7.99079 89.3804 8.17418 90.1052 8.54098C90.8343 8.90335 91.3889 9.41819 91.769 10.0855C92.1535 10.7484 92.3457 11.5283 92.3457 12.4254C92.3457 13.327 92.1512 14.1025 91.7624 14.7521C91.3735 15.3974 90.81 15.8923 90.072 16.237C89.3384 16.5817 88.4502 16.754 87.4072 16.754H83.8211V14.4472H86.9432C87.4912 14.4472 87.9464 14.3721 88.3088 14.2218C88.6711 14.0716 88.9407 13.8462 89.1175 13.5457C89.2987 13.2452 89.3892 12.8718 89.3892 12.4254C89.3892 11.9747 89.2987 11.5946 89.1175 11.2853C88.9407 10.9759 88.6689 10.7417 88.3021 10.5826C87.9398 10.4191 87.4824 10.3374 86.93 10.3374H84.9944V21.5665H82.1241ZM89.4555 15.3885L92.8296 21.5665H89.661L86.3599 15.3885H89.4555Z" fill="#353132"/>
<path d="M93.857 10.3573V7.99079H105.007V10.3573H100.85V21.5665H98.0133V10.3573H93.857Z" fill="#353132"/>
<path d="M109.713 7.99079V21.5665H106.843V7.99079H109.713Z" fill="#353132"/>
<path d="M112.075 21.5665V7.99079H121.063V10.3573H114.945V13.5921H120.467V15.9586H114.945V21.5665H112.075Z" fill="#353132"/>
<path d="M125.864 7.99079V21.5665H122.994V7.99079H125.864Z" fill="#353132"/>
<path d="M140.204 12.7436H137.3C137.247 12.368 137.139 12.0343 136.976 11.7427C136.812 11.4466 136.602 11.1947 136.346 10.987C136.09 10.7793 135.794 10.6202 135.458 10.5097C135.126 10.3992 134.766 10.344 134.377 10.344C133.675 10.344 133.062 10.5186 132.541 10.8677C132.02 11.2124 131.615 11.7162 131.328 12.379C131.041 13.0375 130.897 13.8374 130.897 14.7787C130.897 15.7465 131.041 16.5596 131.328 17.2181C131.62 17.8765 132.026 18.3737 132.548 18.7095C133.069 19.0454 133.672 19.2133 134.357 19.2133C134.742 19.2133 135.097 19.1625 135.425 19.0609C135.756 18.9592 136.05 18.8112 136.306 18.6167C136.562 18.4179 136.775 18.177 136.943 17.8942C137.115 17.6114 137.234 17.2888 137.3 16.9264L140.204 16.9396C140.129 17.5628 139.941 18.1638 139.64 18.7427C139.344 19.3172 138.944 19.832 138.441 20.2872C137.941 20.7379 137.345 21.0959 136.651 21.3611C135.961 21.6218 135.181 21.7521 134.311 21.7521C133.1 21.7521 132.017 21.4782 131.063 20.9302C130.113 20.3822 129.361 19.589 128.809 18.5504C128.261 17.5119 127.987 16.2547 127.987 14.7787C127.987 13.2982 128.265 12.0388 128.822 11.0003C129.379 9.96175 130.135 9.17071 131.089 8.62715C132.044 8.07917 133.118 7.80518 134.311 7.80518C135.097 7.80518 135.827 7.91566 136.498 8.13662C137.175 8.35758 137.773 8.68018 138.295 9.10442C138.816 9.52425 139.24 10.0391 139.568 10.6489C139.899 11.2588 140.111 11.957 140.204 12.7436Z" fill="#353132"/>
<path d="M144.347 21.5665H141.271L145.958 7.99079H149.657L154.336 21.5665H151.261L147.86 11.0931H147.754L144.347 21.5665ZM144.155 16.2304H151.42V18.4709H144.155V16.2304Z" fill="#353132"/>
<path d="M153.795 10.3573V7.99079H164.944V10.3573H160.788V21.5665H157.951V10.3573H153.795Z" fill="#353132"/>
<path d="M169.651 7.99079V21.5665H166.78V7.99079H169.651Z" fill="#353132"/>
<path d="M184.487 14.7787C184.487 16.2591 184.207 17.5186 183.646 18.5571C183.089 19.5956 182.329 20.3888 181.365 20.9368C180.406 21.4804 179.328 21.7521 178.13 21.7521C176.924 21.7521 175.841 21.4782 174.882 20.9302C173.923 20.3822 173.166 19.589 172.609 18.5504C172.052 17.5119 171.773 16.2547 171.773 14.7787C171.773 13.2982 172.052 12.0388 172.609 11.0003C173.166 9.96175 173.923 9.17071 174.882 8.62715C175.841 8.07917 176.924 7.80518 178.13 7.80518C179.328 7.80518 180.406 8.07917 181.365 8.62715C182.329 9.17071 183.089 9.96175 183.646 11.0003C184.207 12.0388 184.487 13.2982 184.487 14.7787ZM181.577 14.7787C181.577 13.8197 181.434 13.011 181.147 12.3525C180.864 11.6941 180.464 11.1947 179.947 10.8544C179.43 10.5141 178.824 10.344 178.13 10.344C177.437 10.344 176.831 10.5141 176.314 10.8544C175.797 11.1947 175.395 11.6941 175.108 12.3525C174.825 13.011 174.684 13.8197 174.684 14.7787C174.684 15.7376 174.825 16.5463 175.108 17.2048C175.395 17.8633 175.797 18.3626 176.314 18.7029C176.831 19.0432 177.437 19.2133 178.13 19.2133C178.824 19.2133 179.43 19.0432 179.947 18.7029C180.464 18.3626 180.864 17.8633 181.147 17.2048C181.434 16.5463 181.577 15.7376 181.577 14.7787Z" fill="#353132"/>
<path d="M197.969 7.99079V21.5665H195.49L189.583 13.022H189.484V21.5665H186.614V7.99079H189.133L194.992 16.5287H195.112V7.99079H197.969Z" fill="#353132"/>
</svg>
