<svg width="518" height="45" viewBox="0 0 518 45" fill="none" xmlns="http://www.w3.org/2000/svg">
<path fill-rule="evenodd" clip-rule="evenodd" d="M35.6068 17.7945C35.6068 27.6241 27.6354 35.5906 17.8034 35.5906C7.97143 35.5906 0 27.6241 0 17.7945C0 7.96657 7.97143 -3.05176e-05 17.8034 -3.05176e-05C27.6354 -3.05176e-05 35.6068 7.96657 35.6068 17.7945Z" fill="#353132"/>
<path d="M19.4727 22.8192C19.0088 23.1013 18.4173 23.259 17.8035 23.259C17.1897 23.259 16.5966 23.1013 16.1343 22.8192L8.57738 18.1865C8.57738 18.1865 7.89502 17.769 7.89502 18.714V23.3419C7.89502 25.7786 12.3319 28.4065 17.8035 28.4065C23.2751 28.4065 27.712 25.7786 27.712 23.3419V18.4542C27.712 17.6941 27.2258 18.0654 27.2258 18.0654L19.4727 22.8192Z" fill="white"/>
<path d="M30.3695 14.5019C30.9514 14.145 30.9514 13.5633 30.3695 13.2063L18.8588 7.45329C18.2784 7.09631 17.3282 7.09631 16.7479 7.45329L5.23553 13.2063C4.65521 13.5633 4.65521 14.145 5.23553 14.5019L16.7479 21.5586C17.3282 21.914 18.2784 21.914 18.8588 21.5586" fill="white"/>
<path fill-rule="evenodd" clip-rule="evenodd" d="M2.86328 42.9229V44.4496H517.579V42.9229H2.86328Z" fill="#656263"/>
<path d="M56.658 21.5665V7.99073H65.8057V10.3572H59.5282V13.5921H65.335V15.9585H59.5282V19.2H65.8322V21.5665H56.658Z" fill="#353132"/>
<path d="M72.9001 21.5665H68.0876V7.99073H72.9399C74.3054 7.99073 75.4809 8.26251 76.4664 8.80607C77.4519 9.34521 78.2098 10.1208 78.7401 11.1328C79.2748 12.1448 79.5422 13.3556 79.5422 14.7654C79.5422 16.1795 79.2748 17.3948 78.7401 18.4112C78.2098 19.4276 77.4475 20.2076 76.4532 20.7511C75.4633 21.2947 74.2789 21.5665 72.9001 21.5665ZM70.9579 19.1072H72.7808C73.6293 19.1072 74.343 18.957 74.9219 18.6565C75.5053 18.3515 75.9428 17.8809 76.2344 17.2445C76.5305 16.6037 76.6786 15.7773 76.6786 14.7654C76.6786 13.7622 76.5305 12.9424 76.2344 12.3061C75.9428 11.6697 75.5075 11.2013 74.9286 10.9008C74.3496 10.6003 73.6359 10.45 72.7875 10.45H70.9579V19.1072Z" fill="#353132"/>
<path d="M90.0538 7.99073H92.924V16.807C92.924 17.7969 92.6876 18.6631 92.2148 19.4055C91.7463 20.1479 91.0901 20.7268 90.246 21.1422C89.402 21.5532 88.4187 21.7587 87.2962 21.7587C86.1693 21.7587 85.1838 21.5532 84.3398 21.1422C83.4957 20.7268 82.8395 20.1479 82.371 19.4055C81.9026 18.6631 81.6684 17.7969 81.6684 16.807V7.99073H84.5386V16.5618C84.5386 17.0788 84.6513 17.5384 84.8767 17.9405C85.1065 18.3427 85.4291 18.6587 85.8445 18.8885C86.2599 19.1183 86.7438 19.2332 87.2962 19.2332C87.853 19.2332 88.3369 19.1183 88.7479 18.8885C89.1633 18.6587 89.4837 18.3427 89.7091 17.9405C89.9389 17.5384 90.0538 17.0788 90.0538 16.5618V7.99073Z" fill="#353132"/>
<path d="M107.264 12.7436H104.36C104.307 12.3679 104.199 12.0343 104.036 11.7426C103.872 11.4465 103.662 11.1946 103.406 10.9869C103.15 10.7792 102.853 10.6201 102.518 10.5097C102.186 10.3992 101.826 10.344 101.437 10.344C100.734 10.344 100.122 10.5185 99.6009 10.8676C99.0794 11.2123 98.6751 11.7161 98.3878 12.379C98.1006 13.0374 97.957 13.8373 97.957 14.7786C97.957 15.7464 98.1006 16.5595 98.3878 17.218C98.6795 17.8765 99.0861 18.3736 99.6075 18.7095C100.129 19.0453 100.732 19.2133 101.417 19.2133C101.802 19.2133 102.157 19.1624 102.484 19.0608C102.816 18.9592 103.11 18.8111 103.366 18.6167C103.622 18.4178 103.834 18.177 104.002 17.8941C104.175 17.6113 104.294 17.2887 104.36 16.9263L107.264 16.9396C107.189 17.5627 107.001 18.1637 106.7 18.7426C106.404 19.3171 106.004 19.832 105.501 20.2871C105.001 20.7379 104.405 21.0958 103.711 21.361C103.021 21.6217 102.241 21.7521 101.371 21.7521C100.16 21.7521 99.0772 21.4781 98.1227 20.9301C97.1725 20.3821 96.4213 19.5889 95.8689 18.5504C95.3209 17.5119 95.0469 16.2546 95.0469 14.7786C95.0469 13.2982 95.3253 12.0387 95.8821 11.0002C96.439 9.96169 97.1946 9.17066 98.1492 8.6271C99.1037 8.07912 100.178 7.80512 101.371 7.80512C102.157 7.80512 102.887 7.9156 103.558 8.13656C104.234 8.35752 104.833 8.68013 105.355 9.10437C105.876 9.52419 106.3 10.039 106.627 10.6489C106.959 11.2587 107.171 11.957 107.264 12.7436Z" fill="#353132"/>
<path d="M111.407 21.5665H108.331L113.018 7.99073H116.716L121.396 21.5665H118.321L114.92 11.093H114.814L111.407 21.5665ZM111.215 16.2303H118.48V18.4708H111.215V16.2303Z" fill="#353132"/>
<path d="M120.854 10.3572V7.99073H132.004V10.3572H127.848V21.5665H125.011V10.3572H120.854Z" fill="#353132"/>
<path d="M136.711 7.99073V21.5665H133.84V7.99073H136.711Z" fill="#353132"/>
<path d="M151.547 14.7786C151.547 16.259 151.267 17.5185 150.706 18.557C150.149 19.5955 149.389 20.3888 148.425 20.9368C147.466 21.4803 146.388 21.7521 145.19 21.7521C143.984 21.7521 142.901 21.4781 141.942 20.9301C140.983 20.3821 140.225 19.5889 139.669 18.5504C139.112 17.5119 138.833 16.2546 138.833 14.7786C138.833 13.2982 139.112 12.0387 139.669 11.0002C140.225 9.96169 140.983 9.17066 141.942 8.6271C142.901 8.07912 143.984 7.80512 145.19 7.80512C146.388 7.80512 147.466 8.07912 148.425 8.6271C149.389 9.17066 150.149 9.96169 150.706 11.0002C151.267 12.0387 151.547 13.2982 151.547 14.7786ZM148.637 14.7786C148.637 13.8196 148.494 13.0109 148.206 12.3525C147.924 11.694 147.524 11.1946 147.007 10.8544C146.49 10.5141 145.884 10.344 145.19 10.344C144.497 10.344 143.891 10.5141 143.374 10.8544C142.857 11.1946 142.455 11.694 142.168 12.3525C141.885 13.0109 141.743 13.8196 141.743 14.7786C141.743 15.7376 141.885 16.5463 142.168 17.2047C142.455 17.8632 142.857 18.3626 143.374 18.7029C143.891 19.0431 144.497 19.2133 145.19 19.2133C145.884 19.2133 146.49 19.0431 147.007 18.7029C147.524 18.3626 147.924 17.8632 148.206 17.2047C148.494 16.5463 148.637 15.7376 148.637 14.7786Z" fill="#353132"/>
<path d="M165.029 7.99073V21.5665H162.55L156.643 13.022H156.544V21.5665H153.674V7.99073H156.193L162.052 16.5286H162.172V7.99073H165.029Z" fill="#353132"/>
</svg>
