<svg width="516" height="44" viewBox="0 0 516 44" fill="none" xmlns="http://www.w3.org/2000/svg">
<path fill-rule="evenodd" clip-rule="evenodd" d="M35.9754 17.7962C35.9754 27.6241 28.0055 35.5923 18.1735 35.5923C8.34155 35.5923 0.370117 27.6241 0.370117 17.7962C0.370117 7.96824 8.34155 0 18.1735 0C28.0055 0 35.9754 7.96824 35.9754 17.7962Z" fill="#353132"/>
<path d="M20.1791 20.7046C19.9144 21.5652 19.1205 22.1994 18.1735 22.1994C17.2249 22.1994 16.4309 21.5652 16.1679 20.7046H7.97799C7.46145 20.7046 6.97359 20.5834 6.53516 20.3747V25.8105C6.53516 26.8703 7.40247 27.7405 8.46586 27.7405H27.8811C28.9429 27.7405 29.8102 26.8703 29.8102 25.8105V20.3763C29.3733 20.5835 28.8855 20.7046 28.3689 20.7046H20.1791Z" fill="white"/>
<path d="M14.5511 10.942C14.7982 10.1993 15.4917 9.65748 16.316 9.65748H20.0307C20.8549 9.65748 21.5484 10.1993 21.7955 10.942H14.5511ZM28.2874 10.942H23.6529C23.3739 9.19375 21.8561 7.85033 20.0307 7.85033H16.316C14.4889 7.85033 12.9711 9.19375 12.6921 10.942H8.05753C6.95269 10.942 6.04712 11.8105 6.04712 12.8735V17.3261C6.04712 18.3938 6.91283 19.2576 7.97782 19.2576H16.0784C16.1039 18.7014 16.3447 18.2009 16.7209 17.8424C16.7305 17.8296 16.7448 17.8233 16.756 17.8105C16.8421 17.7356 16.9281 17.6623 17.0222 17.5986C17.0557 17.5779 17.0955 17.5619 17.1306 17.5396C17.2087 17.495 17.2869 17.4472 17.3698 17.4153C17.4351 17.3866 17.5085 17.3707 17.577 17.3516C17.6376 17.3325 17.695 17.3085 17.7556 17.2974C17.8895 17.2687 18.0314 17.2543 18.1733 17.2543C18.3168 17.2543 18.4555 17.2687 18.5894 17.2974C18.6516 17.3085 18.7074 17.3325 18.7695 17.3516C18.8381 17.3707 18.9083 17.3866 18.9752 17.4153C19.0581 17.4504 19.1378 17.495 19.2144 17.5396C19.2494 17.5619 19.2877 17.5779 19.3228 17.5986C19.4168 17.6623 19.5045 17.7356 19.5874 17.8105C19.5986 17.8233 19.6129 17.8296 19.6241 17.8424C20.0019 18.2041 20.2395 18.7014 20.2682 19.2576H28.3687C29.4337 19.2576 30.2978 18.3938 30.2978 17.3276V12.8735C30.2978 11.8105 29.3939 10.942 28.2874 10.942Z" fill="white"/>
<path fill-rule="evenodd" clip-rule="evenodd" d="M0 42.2251V43.7503H515.245V42.2251H0Z" fill="#656263"/>
<path d="M53.4055 21.5683V7.99253H62.5532V10.359H56.2758V13.5939H62.0826V15.9603H56.2758V19.2018H62.5798V21.5683H53.4055Z" fill="#353132"/>
<path d="M67.5265 7.99253L70.2642 12.6194H70.3702L73.1212 7.99253H76.3627L72.2197 14.7804L76.4555 21.5683H73.1543L70.3702 16.9348H70.2642L67.4801 21.5683H64.1922L68.4413 14.7804L64.2718 7.99253H67.5265Z" fill="#353132"/>
<path d="M78.1789 21.5683V7.99253H83.535C84.5647 7.99253 85.4419 8.18919 86.1666 8.5825C86.8914 8.97139 87.4438 9.51274 87.8238 10.2065C88.2083 10.8959 88.4005 11.6914 88.4005 12.5929C88.4005 13.4944 88.2061 14.2899 87.8172 14.9793C87.4283 15.6687 86.8649 16.2056 86.1269 16.5901C85.3933 16.9745 84.505 17.1668 83.4621 17.1668H80.0483V14.8666H82.9981C83.5505 14.8666 84.0056 14.7716 84.3636 14.5815C84.726 14.3871 84.9956 14.1197 85.1723 13.7795C85.3535 13.4348 85.4441 13.0393 85.4441 12.5929C85.4441 12.1422 85.3535 11.7488 85.1723 11.413C84.9956 11.0727 84.726 10.8098 84.3636 10.6242C84.0012 10.4341 83.5416 10.3391 82.9848 10.3391H81.0492V21.5683H78.1789Z" fill="#353132"/>
<path d="M90.2649 21.5683V7.99253H99.4126V10.359H93.1351V13.5939H98.942V15.9603H93.1351V19.2018H99.4391V21.5683H90.2649Z" fill="#353132"/>
<path d="M101.695 21.5683V7.99253H107.051C108.076 7.99253 108.951 8.17593 109.676 8.54272C110.405 8.9051 110.959 9.41993 111.339 10.0872C111.724 10.7501 111.916 11.5301 111.916 12.4272C111.916 13.3287 111.722 14.1043 111.333 14.7539C110.944 15.3991 110.38 15.894 109.642 16.2387C108.909 16.5834 108.021 16.7558 106.978 16.7558H103.392V14.449H106.514C107.062 14.449 107.517 14.3738 107.879 14.2236C108.242 14.0733 108.511 13.848 108.688 13.5475C108.869 13.247 108.96 12.8735 108.96 12.4272C108.96 11.9764 108.869 11.5964 108.688 11.287C108.511 10.9777 108.239 10.7435 107.873 10.5844C107.51 10.4209 107.053 10.3391 106.5 10.3391H104.565V21.5683H101.695ZM109.026 15.3903L112.4 21.5683H109.231L105.93 15.3903H109.026Z" fill="#353132"/>
<path d="M116.815 7.99253V21.5683H113.945V7.99253H116.815Z" fill="#353132"/>
<path d="M119.176 21.5683V7.99253H128.324V10.359H122.047V13.5939H127.853V15.9603H122.047V19.2018H128.351V21.5683H119.176Z" fill="#353132"/>
<path d="M141.961 7.99253V21.5683H139.482L133.576 13.0238H133.476V21.5683H130.606V7.99253H133.125L138.985 16.5304H139.104V7.99253H141.961Z" fill="#353132"/>
<path d="M156.311 12.7454H153.407C153.354 12.3697 153.246 12.0361 153.083 11.7444C152.919 11.4483 152.709 11.1964 152.453 10.9887C152.197 10.781 151.9 10.622 151.565 10.5115C151.233 10.401 150.873 10.3458 150.484 10.3458C149.781 10.3458 149.169 10.5203 148.648 10.8694C148.126 11.2141 147.722 11.7179 147.435 12.3808C147.148 13.0393 147.004 13.8391 147.004 14.7804C147.004 15.7482 147.148 16.5613 147.435 17.2198C147.727 17.8783 148.133 18.3754 148.655 18.7113C149.176 19.0471 149.779 19.2151 150.464 19.2151C150.849 19.2151 151.204 19.1643 151.531 19.0626C151.863 18.961 152.157 18.8129 152.413 18.6185C152.669 18.4196 152.882 18.1788 153.049 17.8959C153.222 17.6131 153.341 17.2905 153.407 16.9281L156.311 16.9414C156.236 17.5645 156.048 18.1655 155.747 18.7444C155.451 19.3189 155.051 19.8338 154.548 20.2889C154.048 20.7397 153.452 21.0976 152.758 21.3628C152.068 21.6235 151.288 21.7539 150.418 21.7539C149.207 21.7539 148.124 21.4799 147.17 20.9319C146.22 20.3839 145.468 19.5907 144.916 18.5522C144.368 17.5137 144.094 16.2564 144.094 14.7804C144.094 13.3 144.372 12.0405 144.929 11.002C145.486 9.96349 146.242 9.17246 147.196 8.6289C148.151 8.08092 149.225 7.80693 150.418 7.80693C151.204 7.80693 151.934 7.91741 152.605 8.13837C153.281 8.35933 153.88 8.68193 154.402 9.10617C154.923 9.52599 155.347 10.0408 155.674 10.6507C156.006 11.2605 156.218 11.9588 156.311 12.7454Z" fill="#353132"/>
<path d="M158.369 21.5683V7.99253H167.517V10.359H161.239V13.5939H167.046V15.9603H161.239V19.2018H167.543V21.5683H158.369Z" fill="#353132"/>
</svg>
