<svg width="519" height="45" viewBox="0 0 519 45" fill="none" xmlns="http://www.w3.org/2000/svg">
<path fill-rule="evenodd" clip-rule="evenodd" d="M3.96973 42.9233V44.4496H518.686V42.9233H3.96973Z" fill="#656263"/>
<path d="M56.928 21.0752V7.49944H62.284C63.3137 7.49944 64.1909 7.69609 64.9157 8.0894C65.6404 8.47829 66.1928 9.01964 66.5729 9.71345C66.9573 10.4028 67.1496 11.1983 67.1496 12.0998C67.1496 13.0013 66.9551 13.7968 66.5662 14.4862C66.1773 15.1756 65.6139 15.7125 64.8759 16.097C64.1423 16.4814 63.254 16.6737 62.2111 16.6737H58.7973V14.3735H61.7471C62.2995 14.3735 62.7547 14.2785 63.1126 14.0885C63.475 13.894 63.7446 13.6266 63.9213 13.2864C64.1025 12.9417 64.1931 12.5462 64.1931 12.0998C64.1931 11.6491 64.1025 11.2558 63.9213 10.9199C63.7446 10.5796 63.475 10.3167 63.1126 10.1311C62.7503 9.94104 62.2907 9.84603 61.7338 9.84603H59.7982V21.0752H56.928Z" fill="#353132"/>
<path d="M81.4893 14.2873C81.4893 15.7677 81.2087 17.0272 80.6474 18.0657C80.0906 19.1042 79.3305 19.8975 78.3671 20.4455C77.4082 20.989 76.3299 21.2608 75.1323 21.2608C73.9258 21.2608 72.8431 20.9868 71.8842 20.4388C70.9252 19.8909 70.1673 19.0976 69.6105 18.0591C69.0537 17.0206 68.7753 15.7633 68.7753 14.2873C68.7753 12.8069 69.0537 11.5474 69.6105 10.5089C70.1673 9.4704 70.9252 8.67936 71.8842 8.1358C72.8431 7.58782 73.9258 7.31383 75.1323 7.31383C76.3299 7.31383 77.4082 7.58782 78.3671 8.1358C79.3305 8.67936 80.0906 9.4704 80.6474 10.5089C81.2087 11.5474 81.4893 12.8069 81.4893 14.2873ZM78.5792 14.2873C78.5792 13.3284 78.4356 12.5196 78.1484 11.8612C77.8655 11.2027 77.4656 10.7034 76.9486 10.3631C76.4315 10.0228 75.8261 9.85266 75.1323 9.85266C74.4385 9.85266 73.833 10.0228 73.316 10.3631C72.7989 10.7034 72.3968 11.2027 72.1096 11.8612C71.8267 12.5196 71.6853 13.3284 71.6853 14.2873C71.6853 15.2463 71.8267 16.055 72.1096 16.7135C72.3968 17.3719 72.7989 17.8713 73.316 18.2116C73.833 18.5518 74.4385 18.722 75.1323 18.722C75.8261 18.722 76.4315 18.5518 76.9486 18.2116C77.4656 17.8713 77.8655 17.3719 78.1484 16.7135C78.4356 16.055 78.5792 15.2463 78.5792 14.2873Z" fill="#353132"/>
<path d="M83.6155 21.0752V7.49944H88.9715C89.9968 7.49944 90.8718 7.68283 91.5965 8.04963C92.3257 8.412 92.8803 8.92684 93.2604 9.59414C93.6448 10.257 93.8371 11.037 93.8371 11.9341C93.8371 12.8356 93.6426 13.6112 93.2537 14.2608C92.8648 14.906 92.3014 15.401 91.5634 15.7457C90.8298 16.0903 89.9415 16.2627 88.8986 16.2627H85.3124V13.9559H88.4346C88.9826 13.9559 89.4378 13.8808 89.8001 13.7305C90.1625 13.5802 90.4321 13.3549 90.6088 13.0544C90.79 12.7539 90.8806 12.3804 90.8806 11.9341C90.8806 11.4833 90.79 11.1033 90.6088 10.7939C90.4321 10.4846 90.1603 10.2504 89.7935 10.0913C89.4311 9.92778 88.9737 9.84603 88.4213 9.84603H86.4857V21.0752H83.6155ZM90.9469 14.8972L94.321 21.0752H91.1524L87.8513 14.8972H90.9469Z" fill="#353132"/>
<path d="M95.3484 9.86592V7.49944H106.498V9.86592H102.342V21.0752H99.5047V9.86592H95.3484Z" fill="#353132"/>
<path d="M108.334 21.0752V7.49944H117.323V9.86592H111.204V13.1008H116.726V15.4672H111.204V21.0752H108.334Z" fill="#353132"/>
<path d="M131.729 14.2873C131.729 15.7677 131.448 17.0272 130.887 18.0657C130.33 19.1042 129.57 19.8975 128.607 20.4455C127.648 20.989 126.569 21.2608 125.372 21.2608C124.165 21.2608 123.083 20.9868 122.124 20.4388C121.165 19.8909 120.407 19.0976 119.85 18.0591C119.293 17.0206 119.015 15.7633 119.015 14.2873C119.015 12.8069 119.293 11.5474 119.85 10.5089C120.407 9.4704 121.165 8.67936 122.124 8.1358C123.083 7.58782 124.165 7.31383 125.372 7.31383C126.569 7.31383 127.648 7.58782 128.607 8.1358C129.57 8.67936 130.33 9.4704 130.887 10.5089C131.448 11.5474 131.729 12.8069 131.729 14.2873ZM128.819 14.2873C128.819 13.3284 128.675 12.5196 128.388 11.8612C128.105 11.2027 127.705 10.7034 127.188 10.3631C126.671 10.0228 126.066 9.85266 125.372 9.85266C124.678 9.85266 124.073 10.0228 123.556 10.3631C123.039 10.7034 122.636 11.2027 122.349 11.8612C122.066 12.5196 121.925 13.3284 121.925 14.2873C121.925 15.2463 122.066 16.055 122.349 16.7135C122.636 17.3719 123.039 17.8713 123.556 18.2116C124.073 18.5518 124.678 18.722 125.372 18.722C126.066 18.722 126.671 18.5518 127.188 18.2116C127.705 17.8713 128.105 17.3719 128.388 16.7135C128.675 16.055 128.819 15.2463 128.819 14.2873Z" fill="#353132"/>
<path d="M133.855 21.0752V7.49944H136.725V18.7087H142.545V21.0752H133.855Z" fill="#353132"/>
<path d="M147.316 7.49944V21.0752H144.446V7.49944H147.316Z" fill="#353132"/>
<path d="M162.153 14.2873C162.153 15.7677 161.873 17.0272 161.311 18.0657C160.755 19.1042 159.995 19.8975 159.031 20.4455C158.072 20.989 156.994 21.2608 155.796 21.2608C154.59 21.2608 153.507 20.9868 152.548 20.4388C151.589 19.8909 150.831 19.0976 150.275 18.0591C149.718 17.0206 149.439 15.7633 149.439 14.2873C149.439 12.8069 149.718 11.5474 150.275 10.5089C150.831 9.4704 151.589 8.67936 152.548 8.1358C153.507 7.58782 154.59 7.31383 155.796 7.31383C156.994 7.31383 158.072 7.58782 159.031 8.1358C159.995 8.67936 160.755 9.4704 161.311 10.5089C161.873 11.5474 162.153 12.8069 162.153 14.2873ZM159.243 14.2873C159.243 13.3284 159.1 12.5196 158.812 11.8612C158.53 11.2027 158.13 10.7034 157.613 10.3631C157.096 10.0228 156.49 9.85266 155.796 9.85266C155.103 9.85266 154.497 10.0228 153.98 10.3631C153.463 10.7034 153.061 11.2027 152.774 11.8612C152.491 12.5196 152.349 13.3284 152.349 14.2873C152.349 15.2463 152.491 16.055 152.774 16.7135C153.061 17.3719 153.463 17.8713 153.98 18.2116C154.497 18.5518 155.103 18.722 155.796 18.722C156.49 18.722 157.096 18.5518 157.613 18.2116C158.13 17.8713 158.53 17.3719 158.812 16.7135C159.1 16.055 159.243 15.2463 159.243 14.2873Z" fill="#353132"/>
<path d="M174.46 6.86307L170.085 23.1169H167.652L172.027 6.86307H174.46Z" fill="#353132"/>
<path d="M180.194 21.0752V7.49944H185.55C186.579 7.49944 187.457 7.69609 188.181 8.0894C188.906 8.47829 189.458 9.01964 189.838 9.71345C190.223 10.4028 190.415 11.1983 190.415 12.0998C190.415 13.0013 190.221 13.7968 189.832 14.4862C189.443 15.1756 188.88 15.7125 188.142 16.097C187.408 16.4814 186.52 16.6737 185.477 16.6737H182.063V14.3735H185.013C185.565 14.3735 186.02 14.2785 186.378 14.0885C186.741 13.894 187.01 13.6266 187.187 13.2864C187.368 12.9417 187.459 12.5462 187.459 12.0998C187.459 11.6491 187.368 11.2558 187.187 10.9199C187.01 10.5796 186.741 10.3167 186.378 10.1311C186.016 9.94104 185.556 9.84603 184.999 9.84603H183.064V21.0752H180.194Z" fill="#353132"/>
<path d="M192.28 21.0752V7.49944H197.636C198.661 7.49944 199.536 7.68283 200.261 8.04963C200.99 8.412 201.544 8.92684 201.924 9.59414C202.309 10.257 202.501 11.037 202.501 11.9341C202.501 12.8356 202.307 13.6112 201.918 14.2608C201.529 14.906 200.965 15.401 200.227 15.7457C199.494 16.0903 198.606 16.2627 197.563 16.2627H193.977V13.9559H197.099C197.647 13.9559 198.102 13.8808 198.464 13.7305C198.827 13.5802 199.096 13.3549 199.273 13.0544C199.454 12.7539 199.545 12.3804 199.545 11.9341C199.545 11.4833 199.454 11.1033 199.273 10.7939C199.096 10.4846 198.824 10.2504 198.458 10.0913C198.095 9.92778 197.638 9.84603 197.085 9.84603H195.15V21.0752H192.28ZM199.611 14.8972L202.985 21.0752H199.816L196.515 14.8972H199.611Z" fill="#353132"/>
<path d="M217.005 14.2873C217.005 15.7677 216.724 17.0272 216.163 18.0657C215.606 19.1042 214.846 19.8975 213.883 20.4455C212.924 20.989 211.846 21.2608 210.648 21.2608C209.441 21.2608 208.359 20.9868 207.4 20.4388C206.441 19.8909 205.683 19.0976 205.126 18.0591C204.569 17.0206 204.291 15.7633 204.291 14.2873C204.291 12.8069 204.569 11.5474 205.126 10.5089C205.683 9.4704 206.441 8.67936 207.4 8.1358C208.359 7.58782 209.441 7.31383 210.648 7.31383C211.846 7.31383 212.924 7.58782 213.883 8.1358C214.846 8.67936 215.606 9.4704 216.163 10.5089C216.724 11.5474 217.005 12.8069 217.005 14.2873ZM214.095 14.2873C214.095 13.3284 213.951 12.5196 213.664 11.8612C213.381 11.2027 212.981 10.7034 212.464 10.3631C211.947 10.0228 211.342 9.85266 210.648 9.85266C209.954 9.85266 209.349 10.0228 208.832 10.3631C208.315 10.7034 207.912 11.2027 207.625 11.8612C207.342 12.5196 207.201 13.3284 207.201 14.2873C207.201 15.2463 207.342 16.055 207.625 16.7135C207.912 17.3719 208.315 17.8713 208.832 18.2116C209.349 18.5518 209.954 18.722 210.648 18.722C211.342 18.722 211.947 18.5518 212.464 18.2116C212.981 17.8713 213.381 17.3719 213.664 16.7135C213.951 16.055 214.095 15.2463 214.095 14.2873Z" fill="#353132"/>
<path d="M224.567 7.49944H227.404V16.9653C227.404 17.8403 227.207 18.6004 226.814 19.2456C226.425 19.8909 225.884 20.388 225.19 20.7371C224.496 21.0862 223.689 21.2608 222.77 21.2608C221.953 21.2608 221.21 21.1172 220.543 20.8299C219.88 20.5383 219.354 20.0963 218.965 19.5042C218.576 18.9076 218.384 18.1585 218.389 17.257H221.246C221.255 17.615 221.327 17.9221 221.464 18.1784C221.606 18.4303 221.798 18.6248 222.041 18.7617C222.289 18.8943 222.58 18.9606 222.916 18.9606C223.27 18.9606 223.568 18.8855 223.811 18.7352C224.058 18.5806 224.246 18.3552 224.374 18.0591C224.503 17.763 224.567 17.3984 224.567 16.9653V7.49944Z" fill="#353132"/>
<path d="M229.777 21.0752V7.49944H238.925V9.86592H232.647V13.1008H238.454V15.4672H232.647V18.7087H238.951V21.0752H229.777Z" fill="#353132"/>
<path d="M253.185 12.2523H250.281C250.228 11.8766 250.12 11.543 249.957 11.2513C249.793 10.9552 249.583 10.7034 249.327 10.4957C249.071 10.2879 248.774 10.1289 248.439 10.0184C248.107 9.9079 247.747 9.85266 247.358 9.85266C246.655 9.85266 246.043 10.0272 245.522 10.3763C245 10.721 244.596 11.2248 244.309 11.8877C244.022 12.5462 243.878 13.346 243.878 14.2873C243.878 15.2551 244.022 16.0683 244.309 16.7267C244.601 17.3852 245.007 17.8823 245.529 18.2182C246.05 18.554 246.653 18.722 247.338 18.722C247.723 18.722 248.078 18.6712 248.405 18.5695C248.737 18.4679 249.031 18.3198 249.287 18.1254C249.543 17.9265 249.756 17.6857 249.923 17.4028C250.096 17.12 250.215 16.7974 250.281 16.435L253.185 16.4483C253.11 17.0714 252.922 17.6724 252.621 18.2513C252.325 18.8258 251.925 19.3407 251.422 19.7958C250.922 20.2466 250.326 20.6046 249.632 20.8697C248.942 21.1304 248.162 21.2608 247.292 21.2608C246.081 21.2608 244.998 20.9868 244.044 20.4388C243.094 19.8909 242.342 19.0976 241.79 18.0591C241.242 17.0206 240.968 15.7633 240.968 14.2873C240.968 12.8069 241.246 11.5474 241.803 10.5089C242.36 9.4704 243.116 8.67936 244.07 8.1358C245.025 7.58782 246.099 7.31383 247.292 7.31383C248.078 7.31383 248.808 7.42431 249.479 7.64527C250.155 7.86623 250.754 8.18883 251.276 8.61307C251.797 9.0329 252.221 9.54773 252.548 10.1576C252.88 10.7674 253.092 11.4657 253.185 12.2523Z" fill="#353132"/>
<path d="M254.726 9.86592V7.49944H265.876V9.86592H261.719V21.0752H258.882V9.86592H254.726Z" fill="#353132"/>
<path d="M20.6158 8.83154C20.8623 8.80219 21.142 8.86672 21.6219 9.22213C22.1218 9.59236 22.7162 10.1839 23.5864 11.0542L23.7691 11.2368C24.6394 12.1071 25.2309 12.7014 25.6011 13.2013C25.9565 13.6813 26.0211 13.961 25.9917 14.2074C25.9359 14.6765 25.6037 15.1502 25.0198 15.65C24.598 16.0112 24.1328 16.3164 23.679 16.6126L18.2111 11.1443C18.5073 10.6904 18.8125 10.2253 19.1735 9.80341C19.6733 9.21952 20.1468 8.88739 20.6158 8.83154Z" fill="#353132"/>
<path d="M17.2285 12.283L22.5403 17.5952L10.7491 14.4946C10.8037 14.4445 10.933 14.3642 11.3222 14.2878C11.7111 14.2115 12.2393 14.159 13.0162 14.083C14.4535 13.9424 15.8355 13.48 17.2285 12.283Z" fill="#353132"/>
<path d="M20.7398 21.8068C20.8806 20.3691 21.3434 18.988 22.5403 17.5952L10.7491 14.4946C10.6793 14.5586 10.5984 14.6692 10.5075 14.9678C10.412 15.2816 10.332 15.7064 10.2115 16.355L8.74873 24.2327C8.67882 24.6092 8.62143 24.9208 8.57927 25.1833L13.6348 20.1278C13.3679 19.7073 13.198 19.2385 13.1189 18.7509C13.0525 18.3421 13.3301 17.9568 13.739 17.8904C14.1479 17.8241 14.5331 18.1017 14.5995 18.5106C14.6727 18.9612 14.8642 19.3529 15.1673 19.6559C15.4705 19.9591 15.8621 20.1506 16.3127 20.2237C16.7215 20.2901 16.9992 20.6753 16.9328 21.0842C16.8665 21.493 16.4813 21.7707 16.0724 21.7043C15.5848 21.6252 15.116 21.4553 14.6955 21.1884L9.63995 26.244C9.90242 26.2018 10.214 26.1444 10.5903 26.0745L18.4677 24.6116C19.1163 24.4912 19.5411 24.4112 19.8548 24.3157C20.1534 24.2248 20.264 24.1439 20.328 24.0741C20.378 24.0196 20.4583 23.8903 20.5348 23.5009C20.6111 23.1121 20.6637 22.5837 20.7398 21.8068Z" fill="#353132"/>
<path fill-rule="evenodd" clip-rule="evenodd" d="M17.8034 35.5906C27.6354 35.5906 35.6068 27.6225 35.6068 17.7945C35.6068 7.96659 27.6354 0 17.8034 0C7.97143 0 0 7.96659 0 17.7945C0 27.6225 7.97143 35.5906 17.8034 35.5906ZM16.8925 10.4188C16.812 10.5423 16.7367 10.6578 16.6672 10.7616C15.3712 12.0379 14.1628 12.4637 12.8702 12.5902L12.8316 12.5939C12.103 12.6652 11.5019 12.724 11.0333 12.8159C10.5571 12.9094 10.0974 13.0572 9.7356 13.3888C9.38905 13.7064 9.20304 14.1024 9.07258 14.5308C8.94954 14.9349 8.85509 15.4436 8.74425 16.0406L7.26354 24.0148C7.13211 24.7224 7.01836 25.3347 7.00059 25.8228C6.98172 26.3406 7.06168 26.8941 7.4953 27.3278C7.92899 27.7615 8.48261 27.8415 9.00039 27.8227C9.48842 27.8049 10.1007 27.6911 10.8083 27.5597L18.7821 26.0789C19.3791 25.9681 19.8877 25.8736 20.2918 25.7506C20.7202 25.6202 21.1161 25.4342 21.4337 25.0877C21.7653 24.7259 21.9131 24.2662 22.0066 23.79C22.0987 23.3213 22.1576 22.72 22.2289 21.9909L22.2326 21.953C22.3592 20.6603 22.7853 19.4528 24.0616 18.1565C24.1656 18.087 24.2811 18.0116 24.4047 17.9311C24.8835 17.6189 25.483 17.2281 25.9953 16.7895C26.6667 16.2147 27.3574 15.4245 27.4812 14.3848C27.5745 13.6013 27.2737 12.9395 26.8066 12.3086C26.3619 11.7082 25.6892 11.0356 24.8723 10.2187L24.8297 10.1761L24.6048 9.95122C23.7878 9.13415 23.1151 8.46138 22.5146 8.01669C21.8838 7.54953 21.2219 7.24876 20.4385 7.34206C19.3987 7.46588 18.6086 8.15665 18.0339 8.82806C17.5957 9.34012 17.2045 9.94015 16.8925 10.4188Z" fill="#353132"/>
</svg>
