<svg width="978" height="1370" viewBox="0 0 978 1370" fill="none" xmlns="http://www.w3.org/2000/svg">
<g clip-path="url(#clip0_161_199)">
<path fill-rule="evenodd" clip-rule="evenodd" d="M978 1370H0V-0.00305176H978V1370Z" fill="white"/>
<path d="M0 1370H341.992V-0.00305176H0V1370Z" fill="#353132"/>
<path fill-rule="evenodd" clip-rule="evenodd" d="M48.4546 358.286V359.812H341.992V358.286H48.4546Z" fill="white"/>
<path d="M97.7758 573.421H95.3591L99.0414 562.754H101.948L105.625 573.421H103.208L100.536 565.192H100.453L97.7758 573.421ZM97.6247 569.228H103.333V570.988H97.6247V569.228ZM109.442 573.551C108.835 573.551 108.284 573.395 107.791 573.082C107.302 572.766 106.913 572.303 106.625 571.692C106.34 571.077 106.198 570.324 106.198 569.431C106.198 568.514 106.345 567.752 106.64 567.145C106.935 566.534 107.328 566.077 107.817 565.775C108.31 565.469 108.85 565.317 109.437 565.317C109.885 565.317 110.258 565.393 110.557 565.546C110.859 565.695 111.102 565.883 111.286 566.108C111.474 566.33 111.616 566.549 111.713 566.764H111.781V562.754H113.995V573.421H111.807V572.139H111.713C111.609 572.362 111.462 572.582 111.271 572.801C111.083 573.016 110.838 573.195 110.536 573.337C110.238 573.48 109.873 573.551 109.442 573.551ZM110.146 571.785C110.503 571.785 110.805 571.688 111.052 571.494C111.302 571.296 111.493 571.02 111.625 570.666C111.76 570.311 111.828 569.896 111.828 569.421C111.828 568.945 111.762 568.532 111.63 568.181C111.498 567.83 111.307 567.56 111.057 567.369C110.807 567.178 110.503 567.082 110.146 567.082C109.781 567.082 109.474 567.181 109.224 567.379C108.974 567.577 108.784 567.851 108.656 568.202C108.527 568.553 108.463 568.959 108.463 569.421C108.463 569.886 108.527 570.297 108.656 570.655C108.788 571.009 108.977 571.287 109.224 571.488C109.474 571.686 109.781 571.785 110.146 571.785ZM118.767 573.551C118.159 573.551 117.609 573.395 117.116 573.082C116.626 572.766 116.237 572.303 115.949 571.692C115.664 571.077 115.522 570.324 115.522 569.431C115.522 568.514 115.669 567.752 115.965 567.145C116.26 566.534 116.652 566.077 117.142 565.775C117.635 565.469 118.175 565.317 118.761 565.317C119.209 565.317 119.583 565.393 119.881 565.546C120.183 565.695 120.426 565.883 120.61 566.108C120.798 566.33 120.94 566.549 121.037 566.764H121.105V562.754H123.319V573.421H121.131V572.139H121.037C120.933 572.362 120.786 572.582 120.595 572.801C120.407 573.016 120.162 573.195 119.86 573.337C119.562 573.48 119.197 573.551 118.767 573.551ZM119.47 571.785C119.827 571.785 120.129 571.688 120.376 571.494C120.626 571.296 120.817 571.02 120.949 570.666C121.084 570.311 121.152 569.896 121.152 569.421C121.152 568.945 121.086 568.532 120.954 568.181C120.822 567.83 120.631 567.56 120.381 567.369C120.131 567.178 119.827 567.082 119.47 567.082C119.105 567.082 118.798 567.181 118.548 567.379C118.298 567.577 118.109 567.851 117.98 568.202C117.852 568.553 117.787 568.959 117.787 569.421C117.787 569.886 117.852 570.297 117.98 570.655C118.112 571.009 118.301 571.287 118.548 571.488C118.798 571.686 119.105 571.785 119.47 571.785ZM125.143 573.421V565.421H127.294V566.817H127.377C127.523 566.32 127.768 565.945 128.112 565.692C128.455 565.435 128.851 565.306 129.299 565.306C129.41 565.306 129.53 565.313 129.659 565.327C129.787 565.341 129.9 565.36 129.997 565.384V567.353C129.893 567.322 129.749 567.294 129.565 567.27C129.381 567.245 129.212 567.233 129.06 567.233C128.733 567.233 128.442 567.304 128.185 567.447C127.931 567.586 127.73 567.78 127.58 568.03C127.435 568.28 127.362 568.568 127.362 568.895V573.421H125.143ZM134.418 573.577C133.595 573.577 132.886 573.41 132.293 573.077C131.702 572.74 131.248 572.264 130.928 571.65C130.609 571.032 130.449 570.301 130.449 569.457C130.449 568.634 130.609 567.912 130.928 567.291C131.248 566.669 131.697 566.185 132.277 565.837C132.86 565.49 133.544 565.317 134.329 565.317C134.857 565.317 135.348 565.402 135.803 565.572C136.261 565.738 136.661 565.99 137.001 566.327C137.345 566.664 137.612 567.087 137.803 567.598C137.994 568.105 138.09 568.699 138.09 569.379V569.988H131.334V568.613H136.001C136.001 568.294 135.932 568.011 135.793 567.764C135.654 567.518 135.461 567.325 135.215 567.186C134.972 567.044 134.689 566.973 134.366 566.973C134.029 566.973 133.73 567.051 133.47 567.207C133.213 567.36 133.011 567.567 132.866 567.827C132.72 568.084 132.645 568.37 132.642 568.686V569.994C132.642 570.389 132.715 570.731 132.86 571.02C133.01 571.308 133.22 571.53 133.491 571.686C133.761 571.843 134.083 571.921 134.454 571.921C134.701 571.921 134.926 571.886 135.131 571.817C135.336 571.747 135.511 571.643 135.657 571.504C135.803 571.365 135.914 571.195 135.991 570.994L138.043 571.129C137.939 571.622 137.725 572.053 137.402 572.421C137.083 572.785 136.669 573.07 136.162 573.275C135.659 573.476 135.077 573.577 134.418 573.577ZM146.194 567.702L144.162 567.827C144.128 567.653 144.053 567.497 143.939 567.358C143.824 567.216 143.673 567.103 143.485 567.02C143.301 566.933 143.081 566.889 142.824 566.889C142.48 566.889 142.19 566.962 141.954 567.108C141.718 567.251 141.6 567.442 141.6 567.681C141.6 567.872 141.676 568.034 141.829 568.166C141.982 568.297 142.244 568.403 142.616 568.483L144.064 568.775C144.841 568.935 145.421 569.192 145.803 569.546C146.185 569.9 146.376 570.365 146.376 570.942C146.376 571.466 146.222 571.926 145.912 572.322C145.607 572.718 145.187 573.027 144.652 573.249C144.121 573.468 143.508 573.577 142.814 573.577C141.754 573.577 140.911 573.356 140.282 572.916C139.657 572.471 139.291 571.867 139.183 571.103L141.366 570.988C141.432 571.311 141.591 571.558 141.845 571.728C142.098 571.895 142.423 571.978 142.819 571.978C143.208 571.978 143.52 571.903 143.756 571.754C143.996 571.601 144.117 571.405 144.121 571.166C144.117 570.964 144.032 570.799 143.866 570.671C143.699 570.539 143.442 570.438 143.095 570.369L141.709 570.093C140.928 569.936 140.347 569.666 139.965 569.28C139.586 568.895 139.397 568.403 139.397 567.806C139.397 567.292 139.536 566.85 139.814 566.478C140.095 566.106 140.489 565.82 140.996 565.619C141.506 565.417 142.103 565.317 142.787 565.317C143.798 565.317 144.593 565.53 145.173 565.957C145.756 566.384 146.097 566.966 146.194 567.702ZM154.429 567.702L152.398 567.827C152.363 567.653 152.289 567.497 152.174 567.358C152.06 567.216 151.909 567.103 151.721 567.02C151.537 566.933 151.317 566.889 151.06 566.889C150.716 566.889 150.426 566.962 150.19 567.108C149.954 567.251 149.836 567.442 149.836 567.681C149.836 567.872 149.912 568.034 150.065 568.166C150.218 568.297 150.48 568.403 150.851 568.483L152.299 568.775C153.077 568.935 153.657 569.192 154.039 569.546C154.421 569.9 154.612 570.365 154.612 570.942C154.612 571.466 154.457 571.926 154.148 572.322C153.843 572.718 153.422 573.027 152.888 573.249C152.356 573.468 151.744 573.577 151.049 573.577C149.99 573.577 149.146 573.356 148.518 572.916C147.893 572.471 147.527 571.867 147.419 571.103L149.601 570.988C149.667 571.311 149.827 571.558 150.08 571.728C150.334 571.895 150.659 571.978 151.054 571.978C151.443 571.978 151.756 571.903 151.992 571.754C152.231 571.601 152.353 571.405 152.356 571.166C152.353 570.964 152.268 570.799 152.101 570.671C151.935 570.539 151.678 570.438 151.33 570.369L149.945 570.093C149.164 569.936 148.582 569.666 148.2 569.28C147.822 568.895 147.633 568.403 147.633 567.806C147.633 567.292 147.771 566.85 148.049 566.478C148.33 566.106 148.725 565.82 149.231 565.619C149.742 565.417 150.339 565.317 151.023 565.317C152.034 565.317 152.829 565.53 153.409 565.957C153.992 566.384 154.332 566.966 154.429 567.702Z" fill="white"/>
<path d="M95.7959 655.825V645.158H100.004C100.813 645.158 101.502 645.313 102.072 645.622C102.641 645.927 103.075 646.353 103.374 646.898C103.676 647.439 103.827 648.064 103.827 648.773C103.827 649.481 103.674 650.106 103.369 650.648C103.063 651.189 102.621 651.611 102.041 651.913C101.464 652.215 100.766 652.366 99.9469 652.366H97.2646V650.559H99.5823C100.016 650.559 100.374 650.484 100.655 650.335C100.94 650.182 101.152 649.972 101.291 649.705C101.433 649.434 101.504 649.123 101.504 648.773C101.504 648.418 101.433 648.109 101.291 647.846C101.152 647.578 100.94 647.372 100.655 647.226C100.371 647.076 100.009 647.002 99.5719 647.002H98.0511V655.825H95.7959ZM107.469 651.2V655.825H105.25V645.158H107.407V649.236H107.5C107.681 648.764 107.973 648.394 108.375 648.127C108.778 647.856 109.283 647.721 109.891 647.721C110.446 647.721 110.931 647.842 111.344 648.085C111.761 648.325 112.084 648.67 112.313 649.122C112.545 649.57 112.66 650.106 112.657 650.731V655.825H110.438V651.127C110.441 650.634 110.316 650.25 110.063 649.976C109.813 649.701 109.462 649.564 109.011 649.564C108.709 649.564 108.441 649.629 108.209 649.757C107.979 649.885 107.799 650.073 107.667 650.32C107.538 650.563 107.473 650.856 107.469 651.2ZM118.017 655.981C117.208 655.981 116.509 655.809 115.918 655.465C115.331 655.118 114.878 654.635 114.559 654.017C114.239 653.396 114.08 652.675 114.08 651.856C114.08 651.03 114.239 650.307 114.559 649.689C114.878 649.068 115.331 648.585 115.918 648.241C116.509 647.894 117.208 647.721 118.017 647.721C118.826 647.721 119.524 647.894 120.111 648.241C120.701 648.585 121.156 649.068 121.476 649.689C121.795 650.307 121.955 651.03 121.955 651.856C121.955 652.675 121.795 653.396 121.476 654.017C121.156 654.635 120.701 655.118 120.111 655.465C119.524 655.809 118.826 655.981 118.017 655.981ZM118.028 654.262C118.396 654.262 118.703 654.158 118.95 653.95C119.196 653.738 119.382 653.45 119.507 653.085C119.635 652.721 119.7 652.306 119.7 651.84C119.7 651.375 119.635 650.96 119.507 650.596C119.382 650.231 119.196 649.943 118.95 649.731C118.703 649.519 118.396 649.413 118.028 649.413C117.656 649.413 117.344 649.519 117.09 649.731C116.84 649.943 116.651 650.231 116.522 650.596C116.397 650.96 116.335 651.375 116.335 651.84C116.335 652.306 116.397 652.721 116.522 653.085C116.651 653.45 116.84 653.738 117.09 653.95C117.344 654.158 117.656 654.262 118.028 654.262ZM125.616 651.2V655.825H123.397V647.825H125.512V649.236H125.606C125.783 648.771 126.08 648.403 126.496 648.132C126.913 647.858 127.418 647.721 128.012 647.721C128.568 647.721 129.052 647.842 129.465 648.085C129.878 648.328 130.2 648.675 130.429 649.127C130.658 649.575 130.772 650.109 130.772 650.731V655.825H128.554V651.127C128.557 650.637 128.432 650.255 128.179 649.981C127.925 649.703 127.576 649.564 127.132 649.564C126.833 649.564 126.569 649.629 126.34 649.757C126.114 649.885 125.937 650.073 125.809 650.32C125.684 650.563 125.62 650.856 125.616 651.2ZM136.167 655.981C135.344 655.981 134.636 655.814 134.042 655.481C133.452 655.144 132.997 654.668 132.677 654.054C132.358 653.436 132.198 652.705 132.198 651.861C132.198 651.038 132.358 650.316 132.677 649.695C132.997 649.073 133.446 648.589 134.026 648.241C134.61 647.894 135.294 647.721 136.078 647.721C136.606 647.721 137.098 647.806 137.552 647.976C138.011 648.142 138.41 648.394 138.75 648.731C139.094 649.068 139.361 649.491 139.552 650.002C139.743 650.509 139.839 651.103 139.839 651.783V652.392H133.084V651.017H137.75C137.75 650.698 137.681 650.415 137.542 650.168C137.403 649.922 137.21 649.729 136.964 649.59C136.721 649.448 136.438 649.377 136.115 649.377C135.778 649.377 135.479 649.455 135.219 649.611C134.962 649.764 134.761 649.971 134.615 650.231C134.469 650.488 134.394 650.774 134.391 651.09V652.398C134.391 652.793 134.464 653.135 134.61 653.424C134.759 653.712 134.969 653.934 135.24 654.09C135.511 654.247 135.832 654.325 136.203 654.325C136.45 654.325 136.676 654.29 136.88 654.221C137.085 654.151 137.261 654.047 137.407 653.908C137.552 653.769 137.663 653.599 137.74 653.398L139.792 653.533C139.688 654.026 139.474 654.457 139.151 654.825C138.832 655.189 138.419 655.474 137.912 655.679C137.408 655.88 136.827 655.981 136.167 655.981Z" fill="white"/>
<path d="M101.714 723.401C101.672 722.981 101.493 722.655 101.177 722.422C100.861 722.189 100.432 722.073 99.8906 722.073C99.5226 722.073 99.2118 722.125 98.9583 722.229C98.7049 722.33 98.5104 722.47 98.375 722.651C98.2431 722.832 98.1771 723.036 98.1771 723.266C98.1701 723.457 98.2101 723.623 98.2969 723.766C98.3872 723.908 98.5104 724.031 98.6667 724.135C98.8229 724.236 99.0035 724.325 99.2083 724.401C99.4132 724.474 99.6319 724.536 99.8646 724.589L100.823 724.818C101.288 724.922 101.715 725.061 102.104 725.234C102.493 725.408 102.83 725.622 103.115 725.875C103.399 726.128 103.62 726.427 103.776 726.771C103.936 727.115 104.017 727.509 104.021 727.953C104.017 728.606 103.851 729.172 103.521 729.651C103.194 730.127 102.722 730.497 102.104 730.76C101.49 731.021 100.748 731.151 99.8802 731.151C99.0191 731.151 98.2691 731.019 97.6302 730.755C96.9948 730.491 96.4983 730.101 96.1406 729.583C95.7865 729.063 95.6007 728.418 95.5833 727.651H97.7656C97.7899 728.009 97.8924 728.307 98.0729 728.547C98.2569 728.783 98.5017 728.962 98.8073 729.083C99.1163 729.201 99.4653 729.26 99.8542 729.26C100.236 729.26 100.568 729.205 100.849 729.094C101.134 728.983 101.354 728.828 101.51 728.63C101.667 728.432 101.745 728.205 101.745 727.948C101.745 727.708 101.674 727.507 101.531 727.344C101.392 727.181 101.187 727.042 100.917 726.927C100.649 726.813 100.321 726.708 99.9323 726.615L98.7708 726.323C97.8715 726.104 97.1615 725.762 96.6406 725.297C96.1198 724.832 95.8611 724.205 95.8646 723.417C95.8611 722.771 96.033 722.207 96.3802 721.724C96.7309 721.241 97.2118 720.865 97.8229 720.594C98.434 720.323 99.1285 720.188 99.9063 720.188C100.698 720.188 101.389 720.323 101.979 720.594C102.573 720.865 103.035 721.241 103.365 721.724C103.694 722.207 103.865 722.766 103.875 723.401H101.714ZM109.111 731.156C108.302 731.156 107.602 730.984 107.012 730.641C106.425 730.293 105.972 729.811 105.652 729.193C105.333 728.571 105.173 727.851 105.173 727.031C105.173 726.205 105.333 725.483 105.652 724.865C105.972 724.243 106.425 723.76 107.012 723.417C107.602 723.069 108.302 722.896 109.111 722.896C109.92 722.896 110.618 723.069 111.204 723.417C111.795 723.76 112.25 724.243 112.569 724.865C112.888 725.483 113.048 726.205 113.048 727.031C113.048 727.851 112.888 728.571 112.569 729.193C112.25 729.811 111.795 730.293 111.204 730.641C110.618 730.984 109.92 731.156 109.111 731.156ZM109.121 729.438C109.489 729.438 109.796 729.333 110.043 729.125C110.289 728.913 110.475 728.625 110.6 728.26C110.729 727.896 110.793 727.481 110.793 727.016C110.793 726.55 110.729 726.135 110.6 725.771C110.475 725.406 110.289 725.118 110.043 724.906C109.796 724.694 109.489 724.589 109.121 724.589C108.75 724.589 108.437 724.694 108.184 724.906C107.934 725.118 107.744 725.406 107.616 725.771C107.491 726.135 107.428 726.55 107.428 727.016C107.428 727.481 107.491 727.896 107.616 728.26C107.744 728.625 107.934 728.913 108.184 729.125C108.437 729.333 108.75 729.438 109.121 729.438ZM118.105 731.156C117.286 731.156 116.581 730.983 115.991 730.635C115.404 730.285 114.953 729.799 114.637 729.177C114.324 728.556 114.168 727.84 114.168 727.031C114.168 726.212 114.326 725.493 114.642 724.875C114.961 724.253 115.414 723.769 116.001 723.422C116.588 723.071 117.286 722.896 118.095 722.896C118.793 722.896 119.404 723.023 119.928 723.276C120.453 723.53 120.868 723.885 121.173 724.344C121.479 724.802 121.647 725.34 121.678 725.958H119.585C119.526 725.559 119.369 725.238 119.116 724.995C118.866 724.748 118.538 724.625 118.132 724.625C117.788 724.625 117.487 724.719 117.23 724.906C116.977 725.09 116.779 725.359 116.637 725.714C116.494 726.068 116.423 726.497 116.423 727C116.423 727.51 116.493 727.944 116.632 728.302C116.774 728.66 116.974 728.932 117.23 729.12C117.487 729.307 117.788 729.401 118.132 729.401C118.385 729.401 118.612 729.349 118.814 729.245C119.019 729.141 119.187 728.99 119.319 728.792C119.454 728.59 119.543 728.349 119.585 728.068H121.678C121.644 728.679 121.477 729.217 121.178 729.682C120.883 730.144 120.475 730.505 119.954 730.766C119.434 731.026 118.817 731.156 118.105 731.156ZM123.099 731V723H125.318V731H123.099ZM124.214 721.969C123.884 721.969 123.601 721.859 123.365 721.641C123.132 721.418 123.016 721.153 123.016 720.844C123.016 720.538 123.132 720.276 123.365 720.057C123.601 719.835 123.884 719.724 124.214 719.724C124.543 719.724 124.825 719.835 125.057 720.057C125.293 720.276 125.411 720.538 125.411 720.844C125.411 721.153 125.293 721.418 125.057 721.641C124.825 721.859 124.543 721.969 124.214 721.969ZM129.376 731.151C128.866 731.151 128.411 731.063 128.012 730.885C127.612 730.705 127.296 730.439 127.064 730.089C126.835 729.734 126.72 729.293 126.72 728.766C126.72 728.321 126.802 727.948 126.965 727.646C127.128 727.344 127.35 727.101 127.632 726.917C127.913 726.733 128.232 726.594 128.59 726.5C128.951 726.406 129.329 726.34 129.725 726.302C130.191 726.253 130.566 726.208 130.85 726.167C131.135 726.122 131.342 726.056 131.47 725.969C131.599 725.882 131.663 725.753 131.663 725.583V725.552C131.663 725.222 131.559 724.967 131.35 724.786C131.145 724.606 130.854 724.516 130.475 724.516C130.076 724.516 129.758 724.604 129.522 724.781C129.286 724.955 129.13 725.174 129.053 725.438L127.001 725.271C127.105 724.785 127.31 724.365 127.616 724.01C127.921 723.653 128.316 723.378 128.798 723.187C129.284 722.993 129.847 722.896 130.486 722.896C130.93 722.896 131.355 722.948 131.762 723.052C132.171 723.156 132.534 723.318 132.85 723.536C133.17 723.755 133.421 724.036 133.605 724.38C133.789 724.72 133.882 725.128 133.882 725.604V731H131.777V729.891H131.715C131.586 730.141 131.414 730.361 131.199 730.552C130.984 730.74 130.725 730.887 130.423 730.995C130.121 731.099 129.772 731.151 129.376 731.151ZM130.012 729.62C130.338 729.62 130.626 729.556 130.876 729.427C131.126 729.295 131.322 729.118 131.465 728.896C131.607 728.674 131.678 728.422 131.678 728.141V727.292C131.609 727.337 131.513 727.378 131.392 727.417C131.274 727.451 131.14 727.484 130.991 727.516C130.842 727.543 130.692 727.569 130.543 727.594C130.394 727.615 130.258 727.634 130.137 727.651C129.876 727.689 129.649 727.75 129.454 727.833C129.26 727.917 129.109 728.03 129.001 728.172C128.894 728.311 128.84 728.484 128.84 728.693C128.84 728.995 128.949 729.226 129.168 729.385C129.39 729.542 129.671 729.62 130.012 729.62ZM137.822 720.333V731H135.603V720.333H137.822ZM143.035 720.333H145.816L148.754 727.5H148.879L151.816 720.333H154.598V731H152.41V724.057H152.322L149.561 730.948H148.072L145.311 724.031H145.223V731H143.035V720.333ZM160.06 731.156C159.237 731.156 158.529 730.99 157.935 730.656C157.345 730.319 156.89 729.844 156.57 729.229C156.251 728.611 156.091 727.88 156.091 727.036C156.091 726.214 156.251 725.491 156.57 724.87C156.89 724.248 157.339 723.764 157.919 723.417C158.503 723.069 159.187 722.896 159.971 722.896C160.499 722.896 160.99 722.981 161.445 723.151C161.904 723.318 162.303 723.569 162.643 723.906C162.987 724.243 163.254 724.667 163.445 725.177C163.636 725.684 163.732 726.278 163.732 726.958V727.568H156.977V726.193H161.643C161.643 725.873 161.574 725.59 161.435 725.344C161.296 725.097 161.103 724.905 160.857 724.766C160.614 724.623 160.331 724.552 160.008 724.552C159.671 724.552 159.372 724.63 159.112 724.786C158.855 724.939 158.654 725.146 158.508 725.406C158.362 725.663 158.287 725.95 158.284 726.266V727.573C158.284 727.969 158.357 728.311 158.503 728.599C158.652 728.887 158.862 729.109 159.133 729.266C159.404 729.422 159.725 729.5 160.096 729.5C160.343 729.5 160.569 729.465 160.773 729.396C160.978 729.326 161.154 729.222 161.299 729.083C161.445 728.944 161.556 728.774 161.633 728.573L163.685 728.708C163.581 729.201 163.367 729.632 163.044 730C162.725 730.365 162.312 730.649 161.805 730.854C161.301 731.056 160.72 731.156 160.06 731.156ZM168.128 731.13C167.52 731.13 166.97 730.974 166.477 730.661C165.987 730.345 165.598 729.882 165.31 729.271C165.025 728.656 164.883 727.903 164.883 727.01C164.883 726.094 165.03 725.332 165.326 724.724C165.621 724.113 166.013 723.656 166.503 723.354C166.996 723.049 167.536 722.896 168.122 722.896C168.57 722.896 168.944 722.972 169.242 723.125C169.544 723.274 169.787 723.462 169.971 723.688C170.159 723.91 170.301 724.128 170.398 724.344H170.466V720.333H172.68V731H170.492V729.719H170.398C170.294 729.941 170.147 730.161 169.956 730.38C169.768 730.595 169.523 730.774 169.221 730.917C168.923 731.059 168.558 731.13 168.128 731.13ZM168.831 729.365C169.188 729.365 169.49 729.267 169.737 729.073C169.987 728.875 170.178 728.599 170.31 728.245C170.445 727.891 170.513 727.476 170.513 727C170.513 726.524 170.447 726.111 170.315 725.76C170.183 725.41 169.992 725.139 169.742 724.948C169.492 724.757 169.188 724.661 168.831 724.661C168.466 724.661 168.159 724.76 167.909 724.958C167.659 725.156 167.47 725.431 167.341 725.781C167.213 726.132 167.148 726.538 167.148 727C167.148 727.465 167.213 727.877 167.341 728.234C167.473 728.589 167.662 728.866 167.909 729.068C168.159 729.266 168.466 729.365 168.831 729.365ZM174.504 731V723H176.723V731H174.504ZM175.618 721.969C175.289 721.969 175.006 721.859 174.77 721.641C174.537 721.418 174.421 721.153 174.421 720.844C174.421 720.538 174.537 720.276 174.77 720.057C175.006 719.835 175.289 719.724 175.618 719.724C175.948 719.724 176.23 719.835 176.462 720.057C176.698 720.276 176.816 720.538 176.816 720.844C176.816 721.153 176.698 721.418 176.462 721.641C176.23 721.859 175.948 721.969 175.618 721.969ZM180.781 731.151C180.271 731.151 179.816 731.063 179.417 730.885C179.017 730.705 178.701 730.439 178.469 730.089C178.24 729.734 178.125 729.293 178.125 728.766C178.125 728.321 178.207 727.948 178.37 727.646C178.533 727.344 178.755 727.101 179.036 726.917C179.318 726.733 179.637 726.594 179.995 726.5C180.356 726.406 180.734 726.34 181.13 726.302C181.595 726.253 181.97 726.208 182.255 726.167C182.54 726.122 182.747 726.056 182.875 725.969C183.003 725.882 183.068 725.753 183.068 725.583V725.552C183.068 725.222 182.964 724.967 182.755 724.786C182.55 724.606 182.259 724.516 181.88 724.516C181.481 724.516 181.163 724.604 180.927 724.781C180.691 724.955 180.535 725.174 180.458 725.438L178.406 725.271C178.51 724.785 178.715 724.365 179.021 724.01C179.326 723.653 179.72 723.378 180.203 723.187C180.689 722.993 181.252 722.896 181.891 722.896C182.335 722.896 182.76 722.948 183.167 723.052C183.576 723.156 183.939 723.318 184.255 723.536C184.575 723.755 184.826 724.036 185.01 724.38C185.194 724.72 185.286 725.128 185.286 725.604V731H183.182V729.891H183.12C182.991 730.141 182.819 730.361 182.604 730.552C182.389 730.74 182.13 730.887 181.828 730.995C181.526 731.099 181.177 731.151 180.781 731.151ZM181.417 729.62C181.743 729.62 182.031 729.556 182.281 729.427C182.531 729.295 182.727 729.118 182.87 728.896C183.012 728.674 183.083 728.422 183.083 728.141V727.292C183.014 727.337 182.918 727.378 182.797 727.417C182.679 727.451 182.545 727.484 182.396 727.516C182.247 727.543 182.097 727.569 181.948 727.594C181.799 727.615 181.663 727.634 181.542 727.651C181.281 727.689 181.054 727.75 180.859 727.833C180.665 727.917 180.514 728.03 180.406 728.172C180.299 728.311 180.245 728.484 180.245 728.693C180.245 728.995 180.354 729.226 180.573 729.385C180.795 729.542 181.076 729.62 181.417 729.62Z" fill="white"/>
<path fill-rule="evenodd" clip-rule="evenodd" d="M48.4546 539.335V540.861H341.992V539.335H48.4546Z" fill="white"/>
<path fill-rule="evenodd" clip-rule="evenodd" d="M69.2687 729.015C69.2215 727.807 69.0745 726.641 68.8415 725.544H71.893C72.3445 726.626 72.6329 727.793 72.7244 729.015H69.2687ZM71.893 734.22H68.8415C69.0745 733.124 69.2215 731.96 69.2687 730.751H72.7244C72.6329 731.972 72.3445 733.14 71.893 734.22ZM66.343 740.061C67.1819 738.945 67.8788 737.549 68.3875 735.956H70.9844C69.8534 737.721 68.2456 739.149 66.343 740.061ZM62.3423 741.051V735.956H66.5958C65.6629 738.658 64.126 740.574 62.3423 741.051ZM62.3423 730.751H67.5331C67.4826 731.972 67.3282 733.14 67.0822 734.22H62.3423V730.751ZM62.3423 725.544H67.0822C67.3282 726.626 67.4808 727.793 67.5331 729.015H62.3423V725.544ZM62.3423 718.716C64.126 719.192 65.6629 721.108 66.5958 723.809H62.3423V718.716ZM70.9844 723.809H68.3875C67.8788 722.217 67.1843 720.819 66.343 719.705C68.2456 720.617 69.8534 722.045 70.9844 723.809ZM60.6061 723.809H56.3532C57.2854 721.108 58.8218 719.192 60.6061 718.716V723.809ZM60.6061 729.015H55.4159C55.4663 727.793 55.6201 726.626 55.8655 725.544H60.6061V729.015ZM60.6061 734.22H55.8655C55.6201 733.14 55.4663 731.972 55.4159 730.751H60.6061V734.22ZM60.6061 741.051C58.8218 740.574 57.2854 738.658 56.3532 735.956H60.6061V741.051ZM51.9633 735.956H54.5614C55.0683 737.549 55.7639 738.945 56.6041 740.061C54.7021 739.149 53.0941 737.721 51.9633 735.956ZM50.2233 730.751H53.6796C53.7263 731.96 53.8745 733.124 54.1062 734.22H51.0546C50.6031 733.14 50.3154 731.972 50.2233 730.751ZM51.0546 725.544H54.1062C53.8745 726.641 53.7263 727.807 53.6796 729.015H50.2233C50.3154 727.793 50.6031 726.626 51.0546 725.544ZM56.6041 719.705C55.7658 720.819 55.0702 722.217 54.5633 723.809H51.9633C53.0941 722.045 54.7021 720.617 56.6041 719.705ZM74.4638 729.015C74.0367 722.518 68.8415 717.324 62.3423 716.897V716.869H61.4742H60.6061V716.897C54.1062 717.324 48.9117 722.518 48.4838 729.015H48.4546V729.882V730.751H48.4838C48.9117 737.248 54.1062 742.44 60.6061 742.867V742.898H61.4742H62.3423V742.867C68.8415 742.44 74.0367 737.248 74.4638 730.751H74.4944V729.882V729.015H74.4638Z" fill="white"/>
<path fill-rule="evenodd" clip-rule="evenodd" d="M72.923 660.035L67.9784 656.891H67.9528C67.7821 656.781 67.5517 656.725 67.2616 656.725C66.851 656.725 66.4923 656.873 66.1848 657.166L64.7244 658.766C64.6901 658.803 64.6347 658.835 64.5581 658.862C64.4808 658.891 64.4255 658.905 64.3912 658.905L64.0711 658.835C63.8568 658.789 63.5504 658.656 63.1488 658.435C62.747 658.215 62.2482 657.869 61.6503 657.401C61.0525 656.932 60.3687 656.276 59.6009 655.429C58.8142 654.602 58.2078 653.872 57.7811 653.238C57.3539 652.604 57.0382 652.067 56.8332 651.625C56.594 651.128 56.4403 650.687 56.3724 650.301C56.3724 650.247 56.3849 650.178 56.4104 650.094C56.4359 650.013 56.4658 649.952 56.5001 649.915L57.7556 648.564C57.9772 648.325 58.1229 648.03 58.1909 647.683C58.2594 647.332 58.2164 647.012 58.0632 646.717L55.3211 641.12C55.2022 640.918 55.0565 640.747 54.8865 640.61C54.7158 640.471 54.5191 640.403 54.2967 640.403C53.9898 640.403 53.7163 640.53 53.4766 640.789L50.0694 644.456C49.8987 644.621 49.7529 644.838 49.634 645.104C49.5138 645.37 49.4379 645.632 49.4036 645.89C49.4036 645.927 49.3949 646.11 49.3781 646.441C49.3606 646.771 49.3949 647.227 49.4795 647.805C49.5656 648.385 49.7274 649.074 49.9672 649.874C50.2057 650.674 50.5638 651.565 51.0427 652.548C51.521 653.533 52.1531 654.602 52.9391 655.761C53.7243 656.919 54.7158 658.132 55.9102 659.401C57.4136 661.037 58.8318 662.323 60.1638 663.261C61.496 664.198 62.6872 664.9 63.7379 665.37C64.7891 665.839 65.6765 666.134 66.4027 666.253C67.1283 666.371 67.6539 666.432 67.9784 666.432C68.1153 666.432 68.2256 666.427 68.3116 666.419C68.3962 666.41 68.4479 666.405 68.4648 666.405C68.7044 666.366 68.9474 666.285 69.1953 666.156C69.443 666.027 69.6436 665.871 69.7968 665.688L73.2052 662.048C73.4954 661.735 73.6143 661.367 73.5639 660.945C73.4954 660.577 73.2818 660.274 72.923 660.035Z" fill="white"/>
<path d="M61.4741 578.106C58.8579 578.106 56.7292 575.979 56.7292 573.363C56.7292 570.748 58.8579 568.621 61.4741 568.621C64.091 568.621 66.219 570.748 66.219 573.363C66.219 575.979 64.091 578.106 61.4741 578.106ZM61.4741 563.936C56.274 563.936 52.0441 568.165 52.0441 573.363C52.0441 579.815 60.4833 589.284 60.842 589.684C61.1801 590.06 61.7692 590.058 62.1063 589.684C62.4656 589.284 70.9047 579.815 70.9047 573.363C70.9047 568.165 66.6742 563.936 61.4741 563.936Z" fill="white"/>
<path fill-rule="evenodd" clip-rule="evenodd" d="M269.9 165.23C269.9 219.831 225.619 264.094 170.995 264.094C116.373 264.094 72.0918 219.831 72.0918 165.23C72.0918 110.63 116.373 66.3668 170.995 66.3668C225.619 66.3668 269.9 110.63 269.9 165.23Z" fill="#EAE6E9"/>
<path d="M431.147 718.551V710.758C431.147 710.758 431.153 710.388 430.933 710.511C430.757 710.608 430.325 710.847 430.174 710.979C429.999 711.132 430.038 711.475 430.038 711.475V718.551C430.038 718.653 429.952 718.701 429.911 718.725C429.512 718.957 429.246 719.391 429.246 719.885C429.246 720.629 429.849 721.231 430.592 721.231C431.336 721.231 431.94 720.629 431.94 719.885C431.94 719.389 431.669 718.954 431.269 718.721C431.229 718.697 431.147 718.653 431.147 718.551Z" fill="white"/>
<path d="M432.765 1193.73C431.926 1193.03 430.643 1193.11 429.916 1193.98L429.477 1194.5L432.578 1197.1L432.996 1196.59C433.715 1195.73 433.624 1194.45 432.765 1193.73Z" fill="white"/>
<path d="M422.732 1204.7C422.673 1204.94 422.759 1205.21 422.954 1205.37C423.145 1205.53 423.414 1205.58 423.657 1205.47L426.133 1204.4C426.42 1204.27 426.676 1204.08 426.875 1203.84L427.108 1203.57L424.007 1200.97L423.776 1201.24C423.575 1201.48 423.432 1201.77 423.358 1202.07L422.732 1204.7Z" fill="white"/>
<path d="M424.878 1199.94L427.979 1202.54L431.708 1198.13L428.607 1195.53L424.878 1199.94Z" fill="white"/>
<path d="M427.365 1188.2L424.801 1185.77C424.559 1185.54 424.261 1185.4 423.947 1185.31V1189.26H427.951C427.867 1188.86 427.664 1188.49 427.365 1188.2Z" fill="white"/>
<path d="M424.683 251.901C424.419 252.762 423.625 253.396 422.678 253.396C421.729 253.396 420.935 252.762 420.672 251.901H412.482C411.966 251.901 411.478 251.78 411.039 251.571V257.007C411.039 258.067 411.907 258.937 412.97 258.937H432.385C433.447 258.937 434.314 258.067 434.314 257.007V251.573C433.877 251.78 433.39 251.901 432.873 251.901H424.683Z" fill="white"/>
</g>
<defs>
<clipPath id="clip0_161_199">
<rect width="978" height="1370" fill="white"/>
</clipPath>
</defs>
</svg>
