<svg width="978" height="1371" viewBox="0 0 978 1371" fill="none" xmlns="http://www.w3.org/2000/svg">
<path fill-rule="evenodd" clip-rule="evenodd" d="M978 1371H0V0.996948H978V1371Z" fill="white"/>
<path d="M0 1371H341.992V0.996948H0V1371Z" fill="#353132"/>
<path fill-rule="evenodd" clip-rule="evenodd" d="M269.9 166.23C269.9 220.831 225.619 265.094 170.995 265.094C116.373 265.094 72.0918 220.831 72.0918 166.23C72.0918 111.63 116.373 67.3668 170.995 67.3668C225.619 67.3668 269.9 111.63 269.9 166.23Z" fill="#EAE6E9"/>
<path fill-rule="evenodd" clip-rule="evenodd" d="M436.859 672.384C436.859 682.214 428.887 690.18 419.055 690.18C409.223 690.18 401.252 682.214 401.252 672.384C401.252 662.556 409.223 654.59 419.055 654.59C428.887 654.59 436.859 662.556 436.859 672.384Z" fill="#353132"/>
<path d="M420.725 677.409C420.261 677.691 419.669 677.849 419.055 677.849C418.442 677.849 417.849 677.691 417.386 677.409L409.829 672.776C409.829 672.776 409.147 672.359 409.147 673.304V677.932C409.147 680.368 413.584 682.996 419.055 682.996C424.527 682.996 428.964 680.368 428.964 677.932V673.044C428.964 672.284 428.478 672.655 428.478 672.655L420.725 677.409Z" fill="white"/>
<path d="M431.621 669.092C432.203 668.735 432.203 668.153 431.621 667.796L420.111 662.043C419.53 661.686 418.58 661.686 418 662.043L406.487 667.796C405.907 668.153 405.907 668.735 406.487 669.092L418 676.148C418.58 676.504 419.53 676.504 420.111 676.148" fill="white"/>
<path d="M431.146 719.551V711.758C431.146 711.758 431.153 711.388 430.933 711.511C430.757 711.608 430.325 711.847 430.174 711.979C429.999 712.132 430.038 712.475 430.038 712.475V719.551C430.038 719.653 429.952 719.701 429.911 719.725C429.512 719.957 429.246 720.391 429.246 720.885C429.246 721.629 429.849 722.231 430.592 722.231C431.336 722.231 431.94 721.629 431.94 720.885C431.94 720.389 431.669 719.954 431.269 719.721C431.229 719.697 431.146 719.653 431.146 719.551Z" fill="white"/>
<path fill-rule="evenodd" clip-rule="evenodd" d="M404.115 697.356V698.883H918.831V697.356H404.115Z" fill="#656263"/>
<path d="M457.91 676V662.424H467.058V664.791H460.78V668.026H466.587V670.392H460.78V673.634H467.084V676H457.91Z" fill="#353132"/>
<path d="M474.152 676H469.34V662.424H474.192C475.557 662.424 476.733 662.696 477.718 663.24C478.704 663.779 479.462 664.554 479.992 665.566C480.527 666.578 480.794 667.789 480.794 669.199C480.794 670.613 480.527 671.828 479.992 672.845C479.462 673.861 478.699 674.641 477.705 675.185C476.715 675.728 475.531 676 474.152 676ZM472.21 673.541H474.033C474.881 673.541 475.595 673.391 476.174 673.09C476.757 672.785 477.195 672.314 477.486 671.678C477.782 671.037 477.931 670.211 477.931 669.199C477.931 668.196 477.782 667.376 477.486 666.74C477.195 666.103 476.759 665.635 476.181 665.334C475.602 665.034 474.888 664.884 474.039 664.884H472.21V673.541Z" fill="#353132"/>
<path d="M491.306 662.424H494.176V671.241C494.176 672.23 493.94 673.097 493.467 673.839C492.998 674.581 492.342 675.16 491.498 675.576C490.654 675.987 489.671 676.192 488.548 676.192C487.421 676.192 486.436 675.987 485.592 675.576C484.748 675.16 484.091 674.581 483.623 673.839C483.155 673.097 482.92 672.23 482.92 671.241V662.424H485.791V670.995C485.791 671.512 485.903 671.972 486.129 672.374C486.358 672.776 486.681 673.092 487.096 673.322C487.512 673.552 487.996 673.667 488.548 673.667C489.105 673.667 489.589 673.552 490 673.322C490.415 673.092 490.736 672.776 490.961 672.374C491.191 671.972 491.306 671.512 491.306 670.995V662.424Z" fill="#353132"/>
<path d="M508.516 667.177H505.612C505.559 666.801 505.451 666.468 505.288 666.176C505.124 665.88 504.914 665.628 504.658 665.421C504.401 665.213 504.105 665.054 503.77 664.943C503.438 664.833 503.078 664.778 502.689 664.778C501.986 664.778 501.374 664.952 500.853 665.301C500.331 665.646 499.927 666.15 499.64 666.813C499.353 667.471 499.209 668.271 499.209 669.212C499.209 670.18 499.353 670.993 499.64 671.652C499.931 672.31 500.338 672.807 500.859 673.143C501.381 673.479 501.984 673.647 502.669 673.647C503.054 673.647 503.409 673.596 503.736 673.494C504.068 673.393 504.362 673.245 504.618 673.05C504.874 672.851 505.086 672.611 505.254 672.328C505.427 672.045 505.546 671.722 505.612 671.36L508.516 671.373C508.441 671.996 508.253 672.597 507.952 673.176C507.656 673.751 507.256 674.266 506.752 674.721C506.253 675.171 505.657 675.529 504.963 675.795C504.273 676.055 503.493 676.186 502.623 676.186C501.412 676.186 500.329 675.912 499.375 675.364C498.425 674.816 497.673 674.022 497.121 672.984C496.573 671.945 496.299 670.688 496.299 669.212C496.299 667.732 496.577 666.472 497.134 665.434C497.691 664.395 498.447 663.604 499.401 663.061C500.356 662.513 501.43 662.239 502.623 662.239C503.409 662.239 504.139 662.349 504.81 662.57C505.486 662.791 506.085 663.114 506.607 663.538C507.128 663.958 507.552 664.473 507.879 665.082C508.211 665.692 508.423 666.391 508.516 667.177Z" fill="#353132"/>
<path d="M512.659 676H509.583L514.27 662.424H517.968L522.648 676H519.573L516.172 665.527H516.066L512.659 676ZM512.466 670.664H519.732V672.904H512.466V670.664Z" fill="#353132"/>
<path d="M522.106 664.791V662.424H533.256V664.791H529.1V676H526.263V664.791H522.106Z" fill="#353132"/>
<path d="M537.962 662.424V676H535.092V662.424H537.962Z" fill="#353132"/>
<path d="M552.799 669.212C552.799 670.693 552.519 671.952 551.957 672.991C551.401 674.029 550.641 674.822 549.677 675.37C548.718 675.914 547.64 676.186 546.442 676.186C545.236 676.186 544.153 675.912 543.194 675.364C542.235 674.816 541.477 674.022 540.921 672.984C540.364 671.945 540.085 670.688 540.085 669.212C540.085 667.732 540.364 666.472 540.921 665.434C541.477 664.395 542.235 663.604 543.194 663.061C544.153 662.513 545.236 662.239 546.442 662.239C547.64 662.239 548.718 662.513 549.677 663.061C550.641 663.604 551.401 664.395 551.957 665.434C552.519 666.472 552.799 667.732 552.799 669.212ZM549.889 669.212C549.889 668.253 549.746 667.444 549.458 666.786C549.176 666.128 548.776 665.628 548.259 665.288C547.742 664.948 547.136 664.778 546.442 664.778C545.749 664.778 545.143 664.948 544.626 665.288C544.109 665.628 543.707 666.128 543.42 666.786C543.137 667.444 542.995 668.253 542.995 669.212C542.995 670.171 543.137 670.98 543.42 671.638C543.707 672.297 544.109 672.796 544.626 673.136C545.143 673.477 545.749 673.647 546.442 673.647C547.136 673.647 547.742 673.477 548.259 673.136C548.776 672.796 549.176 672.297 549.458 671.638C549.746 670.98 549.889 670.171 549.889 669.212Z" fill="#353132"/>
<path d="M566.281 662.424V676H563.801L557.895 667.456H557.796V676H554.926V662.424H557.444L563.304 670.962H563.424V662.424H566.281Z" fill="#353132"/>
<path fill-rule="evenodd" clip-rule="evenodd" d="M436.859 952.384C436.859 962.214 428.887 970.18 419.055 970.18C409.223 970.18 401.252 962.214 401.252 952.384C401.252 942.556 409.223 934.59 419.055 934.59C428.887 934.59 436.859 942.556 436.859 952.384Z" fill="#353132"/>
<path fill-rule="evenodd" clip-rule="evenodd" d="M404.115 977.356V978.883H918.831V977.356H404.115Z" fill="#656263"/>
<path d="M458.18 956V942.424H463.536C464.566 942.424 465.443 942.621 466.168 943.014C466.892 943.403 467.445 943.944 467.825 944.638C468.209 945.328 468.402 946.123 468.402 947.025C468.402 947.926 468.207 948.722 467.818 949.411C467.429 950.1 466.866 950.637 466.128 951.022C465.394 951.406 464.506 951.599 463.463 951.599H460.049V949.298H462.999C463.551 949.298 464.007 949.203 464.365 949.013C464.727 948.819 464.997 948.551 465.173 948.211C465.354 947.866 465.445 947.471 465.445 947.025C465.445 946.574 465.354 946.181 465.173 945.845C464.997 945.504 464.727 945.241 464.365 945.056C464.002 944.866 463.543 944.771 462.986 944.771H461.05V956H458.18Z" fill="#353132"/>
<path d="M482.741 949.212C482.741 950.693 482.461 951.952 481.899 952.991C481.343 954.029 480.582 954.822 479.619 955.37C478.66 955.914 477.582 956.186 476.384 956.186C475.178 956.186 474.095 955.912 473.136 955.364C472.177 954.816 471.419 954.022 470.862 952.984C470.306 951.945 470.027 950.688 470.027 949.212C470.027 947.732 470.306 946.472 470.862 945.434C471.419 944.395 472.177 943.604 473.136 943.061C474.095 942.513 475.178 942.239 476.384 942.239C477.582 942.239 478.66 942.513 479.619 943.061C480.582 943.604 481.343 944.395 481.899 945.434C482.461 946.472 482.741 947.732 482.741 949.212ZM479.831 949.212C479.831 948.253 479.688 947.444 479.4 946.786C479.118 946.128 478.718 945.628 478.201 945.288C477.683 944.948 477.078 944.777 476.384 944.777C475.69 944.777 475.085 944.948 474.568 945.288C474.051 945.628 473.649 946.128 473.362 946.786C473.079 947.444 472.937 948.253 472.937 949.212C472.937 950.171 473.079 950.98 473.362 951.638C473.649 952.297 474.051 952.796 474.568 953.136C475.085 953.477 475.69 953.647 476.384 953.647C477.078 953.647 477.683 953.477 478.201 953.136C478.718 952.796 479.118 952.297 479.4 951.638C479.688 950.98 479.831 950.171 479.831 949.212Z" fill="#353132"/>
<path d="M484.867 956V942.424H490.223C491.249 942.424 492.124 942.608 492.848 942.974C493.578 943.337 494.132 943.852 494.512 944.519C494.897 945.182 495.089 945.962 495.089 946.859C495.089 947.76 494.895 948.536 494.506 949.186C494.117 949.831 493.553 950.326 492.815 950.67C492.082 951.015 491.194 951.188 490.151 951.188H486.564V948.881H489.687C490.235 948.881 490.69 948.806 491.052 948.655C491.414 948.505 491.684 948.28 491.861 947.979C492.042 947.679 492.133 947.305 492.133 946.859C492.133 946.408 492.042 946.028 491.861 945.719C491.684 945.409 491.412 945.175 491.045 945.016C490.683 944.853 490.226 944.771 489.673 944.771H487.738V956H484.867ZM492.199 949.822L495.573 956H492.404L489.103 949.822H492.199Z" fill="#353132"/>
<path d="M496.6 944.791V942.424H507.75V944.791H503.594V956H500.757V944.791H496.6Z" fill="#353132"/>
<path d="M509.586 956V942.424H518.575V944.791H512.456V948.026H517.978V950.392H512.456V956H509.586Z" fill="#353132"/>
<path d="M532.981 949.212C532.981 950.693 532.7 951.952 532.139 952.991C531.582 954.029 530.822 954.822 529.859 955.37C528.9 955.914 527.821 956.186 526.624 956.186C525.417 956.186 524.335 955.912 523.376 955.364C522.417 954.816 521.659 954.022 521.102 952.984C520.545 951.945 520.267 950.688 520.267 949.212C520.267 947.732 520.545 946.472 521.102 945.434C521.659 944.395 522.417 943.604 523.376 943.061C524.335 942.513 525.417 942.239 526.624 942.239C527.821 942.239 528.9 942.513 529.859 943.061C530.822 943.604 531.582 944.395 532.139 945.434C532.7 946.472 532.981 947.732 532.981 949.212ZM530.071 949.212C530.071 948.253 529.927 947.444 529.64 946.786C529.357 946.128 528.957 945.628 528.44 945.288C527.923 944.948 527.318 944.777 526.624 944.777C525.93 944.777 525.325 944.948 524.808 945.288C524.291 945.628 523.888 946.128 523.601 946.786C523.318 947.444 523.177 948.253 523.177 949.212C523.177 950.171 523.318 950.98 523.601 951.638C523.888 952.297 524.291 952.796 524.808 953.136C525.325 953.477 525.93 953.647 526.624 953.647C527.318 953.647 527.923 953.477 528.44 953.136C528.957 952.796 529.357 952.297 529.64 951.638C529.927 950.98 530.071 950.171 530.071 949.212Z" fill="#353132"/>
<path d="M535.107 956V942.424H537.977V953.634H543.797V956H535.107Z" fill="#353132"/>
<path d="M548.568 942.424V956H545.698V942.424H548.568Z" fill="#353132"/>
<path d="M563.405 949.212C563.405 950.693 563.125 951.952 562.563 952.991C562.007 954.029 561.247 954.822 560.283 955.37C559.324 955.914 558.246 956.186 557.048 956.186C555.842 956.186 554.759 955.912 553.8 955.364C552.841 954.816 552.083 954.022 551.526 952.984C550.97 951.945 550.691 950.688 550.691 949.212C550.691 947.732 550.97 946.472 551.526 945.434C552.083 944.395 552.841 943.604 553.8 943.061C554.759 942.513 555.842 942.239 557.048 942.239C558.246 942.239 559.324 942.513 560.283 943.061C561.247 943.604 562.007 944.395 562.563 945.434C563.125 946.472 563.405 947.732 563.405 949.212ZM560.495 949.212C560.495 948.253 560.352 947.444 560.064 946.786C559.782 946.128 559.382 945.628 558.865 945.288C558.348 944.948 557.742 944.777 557.048 944.777C556.354 944.777 555.749 944.948 555.232 945.288C554.715 945.628 554.313 946.128 554.026 946.786C553.743 947.444 553.601 948.253 553.601 949.212C553.601 950.171 553.743 950.98 554.026 951.638C554.313 952.297 554.715 952.796 555.232 953.136C555.749 953.477 556.354 953.647 557.048 953.647C557.742 953.647 558.348 953.477 558.865 953.136C559.382 952.796 559.782 952.297 560.064 951.638C560.352 950.98 560.495 950.171 560.495 949.212Z" fill="#353132"/>
<path d="M575.712 941.788L571.337 958.042H568.904L573.279 941.788H575.712Z" fill="#353132"/>
<path d="M581.446 956V942.424H586.802C587.831 942.424 588.708 942.621 589.433 943.014C590.158 943.403 590.71 943.944 591.09 944.638C591.475 945.328 591.667 946.123 591.667 947.025C591.667 947.926 591.473 948.722 591.084 949.411C590.695 950.1 590.131 950.637 589.393 951.022C588.66 951.406 587.772 951.599 586.729 951.599H583.315V949.298H586.265C586.817 949.298 587.272 949.203 587.63 949.013C587.993 948.819 588.262 948.551 588.439 948.211C588.62 947.866 588.711 947.471 588.711 947.025C588.711 946.574 588.62 946.181 588.439 945.845C588.262 945.504 587.993 945.241 587.63 945.056C587.268 944.866 586.808 944.771 586.251 944.771H584.316V956H581.446Z" fill="#353132"/>
<path d="M593.531 956V942.424H598.888C599.913 942.424 600.788 942.608 601.513 942.974C602.242 943.337 602.796 943.852 603.176 944.519C603.561 945.182 603.753 945.962 603.753 946.859C603.753 947.76 603.559 948.536 603.17 949.186C602.781 949.831 602.217 950.326 601.479 950.67C600.746 951.015 599.858 951.188 598.815 951.188H595.228V948.881H598.351C598.899 948.881 599.354 948.806 599.716 948.655C600.078 948.505 600.348 948.28 600.525 947.979C600.706 947.679 600.797 947.305 600.797 946.859C600.797 946.408 600.706 946.028 600.525 945.719C600.348 945.409 600.076 945.175 599.71 945.016C599.347 944.853 598.89 944.771 598.337 944.771H596.402V956H593.531ZM600.863 949.822L604.237 956H601.068L597.767 949.822H600.863Z" fill="#353132"/>
<path d="M618.257 949.212C618.257 950.693 617.976 951.952 617.415 952.991C616.858 954.029 616.098 954.822 615.135 955.37C614.176 955.914 613.097 956.186 611.9 956.186C610.693 956.186 609.611 955.912 608.652 955.364C607.693 954.816 606.935 954.022 606.378 952.984C605.821 951.945 605.543 950.688 605.543 949.212C605.543 947.732 605.821 946.472 606.378 945.434C606.935 944.395 607.693 943.604 608.652 943.061C609.611 942.513 610.693 942.239 611.9 942.239C613.097 942.239 614.176 942.513 615.135 943.061C616.098 943.604 616.858 944.395 617.415 945.434C617.976 946.472 618.257 947.732 618.257 949.212ZM615.347 949.212C615.347 948.253 615.203 947.444 614.916 946.786C614.633 946.128 614.233 945.628 613.716 945.288C613.199 944.948 612.594 944.777 611.9 944.777C611.206 944.777 610.601 944.948 610.084 945.288C609.567 945.628 609.164 946.128 608.877 946.786C608.594 947.444 608.453 948.253 608.453 949.212C608.453 950.171 608.594 950.98 608.877 951.638C609.164 952.297 609.567 952.796 610.084 953.136C610.601 953.477 611.206 953.647 611.9 953.647C612.594 953.647 613.199 953.477 613.716 953.136C614.233 952.796 614.633 952.297 614.916 951.638C615.203 950.98 615.347 950.171 615.347 949.212Z" fill="#353132"/>
<path d="M625.819 942.424H628.656V951.89C628.656 952.765 628.459 953.525 628.066 954.17C627.677 954.816 627.136 955.313 626.442 955.662C625.748 956.011 624.941 956.186 624.022 956.186C623.205 956.186 622.462 956.042 621.795 955.755C621.132 955.463 620.606 955.021 620.217 954.429C619.828 953.832 619.636 953.083 619.641 952.182H622.498C622.506 952.54 622.579 952.847 622.716 953.103C622.858 953.355 623.05 953.55 623.293 953.687C623.541 953.819 623.832 953.885 624.168 953.885C624.522 953.885 624.82 953.81 625.063 953.66C625.31 953.505 625.498 953.28 625.626 952.984C625.755 952.688 625.819 952.323 625.819 951.89V942.424Z" fill="#353132"/>
<path d="M631.029 956V942.424H640.177V944.791H633.899V948.026H639.706V950.392H633.899V953.634H640.203V956H631.029Z" fill="#353132"/>
<path d="M654.437 947.177H651.533C651.48 946.801 651.372 946.468 651.209 946.176C651.045 945.88 650.835 945.628 650.579 945.42C650.323 945.213 650.026 945.054 649.691 944.943C649.359 944.833 648.999 944.777 648.61 944.777C647.907 944.777 647.295 944.952 646.774 945.301C646.252 945.646 645.848 946.15 645.561 946.812C645.274 947.471 645.13 948.271 645.13 949.212C645.13 950.18 645.274 950.993 645.561 951.651C645.853 952.31 646.259 952.807 646.781 953.143C647.302 953.479 647.905 953.647 648.59 953.647C648.975 953.647 649.33 953.596 649.657 953.494C649.989 953.393 650.283 953.245 650.539 953.05C650.795 952.851 651.007 952.61 651.175 952.328C651.348 952.045 651.467 951.722 651.533 951.36L654.437 951.373C654.362 951.996 654.174 952.597 653.873 953.176C653.577 953.751 653.177 954.265 652.674 954.721C652.174 955.171 651.578 955.529 650.884 955.794C650.194 956.055 649.414 956.186 648.544 956.186C647.333 956.186 646.25 955.912 645.296 955.364C644.346 954.816 643.594 954.022 643.042 952.984C642.494 951.945 642.22 950.688 642.22 949.212C642.22 947.732 642.498 946.472 643.055 945.434C643.612 944.395 644.368 943.604 645.322 943.061C646.277 942.513 647.351 942.239 648.544 942.239C649.33 942.239 650.06 942.349 650.731 942.57C651.407 942.791 652.006 943.114 652.528 943.538C653.049 943.958 653.473 944.473 653.8 945.082C654.132 945.692 654.344 946.39 654.437 947.177Z" fill="#353132"/>
<path d="M655.978 944.791V942.424H667.128V944.791H662.971V956H660.134V944.791H655.978Z" fill="#353132"/>
<path fill-rule="evenodd" clip-rule="evenodd" d="M436.859 1197.72C436.859 1207.55 428.887 1215.52 419.055 1215.52C409.223 1215.52 401.252 1207.55 401.252 1197.72C401.252 1187.89 409.223 1179.92 419.055 1179.92C428.887 1179.92 436.859 1187.89 436.859 1197.72Z" fill="#353132"/>
<path d="M432.765 1194.73C431.926 1194.03 430.643 1194.11 429.916 1194.98L429.477 1195.5L432.578 1198.1L432.996 1197.59C433.715 1196.73 433.624 1195.45 432.765 1194.73Z" fill="white"/>
<path d="M422.732 1205.7C422.673 1205.94 422.759 1206.21 422.953 1206.37C423.145 1206.53 423.414 1206.58 423.657 1206.47L426.132 1205.4C426.419 1205.27 426.676 1205.08 426.875 1204.84L427.108 1204.57L424.007 1201.97L423.776 1202.24C423.575 1202.48 423.432 1202.77 423.358 1203.07L422.732 1205.7Z" fill="white"/>
<path d="M424.878 1200.94L427.979 1203.54L431.708 1199.13L428.607 1196.53L424.878 1200.94Z" fill="white"/>
<path d="M427.365 1189.2L424.801 1186.77C424.559 1186.54 424.261 1186.4 423.947 1186.31V1190.26H427.951C427.867 1189.86 427.665 1189.48 427.365 1189.2Z" fill="white"/>
<path d="M419.224 1203.79H413.826C413.453 1203.79 413.152 1203.49 413.152 1203.12C413.152 1202.74 413.453 1202.44 413.826 1202.44H419.224C419.597 1202.44 419.899 1202.74 419.899 1203.12C419.899 1203.49 419.597 1203.79 419.224 1203.79ZM413.826 1198.4H421.922C422.295 1198.4 422.598 1198.7 422.598 1199.07C422.598 1199.44 422.295 1199.74 421.922 1199.74H413.826C413.453 1199.74 413.152 1199.44 413.152 1199.07C413.152 1198.7 413.453 1198.4 413.826 1198.4ZM413.826 1194.35H424.621C424.994 1194.35 425.295 1194.65 425.295 1195.02C425.295 1195.39 424.994 1195.7 424.621 1195.7H413.826C413.453 1195.7 413.152 1195.39 413.152 1195.02C413.152 1194.65 413.453 1194.35 413.826 1194.35ZM413.826 1190.26H420.573C420.946 1190.26 421.248 1190.56 421.248 1190.93C421.248 1191.3 420.946 1191.6 420.573 1191.6H413.826C413.453 1191.6 413.152 1191.3 413.152 1190.93C413.152 1190.56 413.453 1190.26 413.826 1190.26ZM426.671 1206.64L424.192 1207.71C423.494 1208.01 422.686 1207.9 422.088 1207.4C421.496 1206.91 421.24 1206.13 421.42 1205.38L422.046 1202.76C422.167 1202.25 422.408 1201.78 422.741 1201.38L427.995 1195.16V1191.6H423.272C422.899 1191.6 422.598 1191.3 422.598 1190.93V1186.21H412.477C411.361 1186.21 410.454 1187.12 410.454 1188.23V1207.21C410.454 1208.32 411.361 1209.23 412.477 1209.23H425.971C427.086 1209.23 427.995 1208.32 427.995 1207.21V1205.61L427.907 1205.72C427.575 1206.11 427.148 1206.43 426.671 1206.64Z" fill="white"/>
<path fill-rule="evenodd" clip-rule="evenodd" d="M405.222 1222.85V1224.37H919.938V1222.85H405.222Z" fill="#656263"/>
<path d="M469.888 1192.67H466.985C466.932 1192.29 466.823 1191.96 466.66 1191.67C466.496 1191.37 466.287 1191.12 466.03 1190.91C465.774 1190.7 465.478 1190.55 465.142 1190.43C464.81 1190.32 464.45 1190.27 464.061 1190.27C463.359 1190.27 462.747 1190.44 462.225 1190.79C461.704 1191.14 461.299 1191.64 461.012 1192.3C460.725 1192.96 460.581 1193.76 460.581 1194.7C460.581 1195.67 460.725 1196.48 461.012 1197.14C461.304 1197.8 461.71 1198.3 462.232 1198.63C462.753 1198.97 463.357 1199.14 464.042 1199.14C464.426 1199.14 464.782 1199.09 465.109 1198.99C465.44 1198.88 465.734 1198.74 465.99 1198.54C466.247 1198.34 466.459 1198.1 466.627 1197.82C466.799 1197.54 466.918 1197.21 466.985 1196.85L469.888 1196.86C469.813 1197.49 469.625 1198.09 469.325 1198.67C469.029 1199.24 468.629 1199.76 468.125 1200.21C467.626 1200.66 467.029 1201.02 466.335 1201.29C465.646 1201.55 464.866 1201.68 463.995 1201.68C462.784 1201.68 461.702 1201.4 460.747 1200.85C459.797 1200.31 459.046 1199.51 458.493 1198.48C457.945 1197.44 457.671 1196.18 457.671 1194.7C457.671 1193.22 457.95 1191.96 458.507 1190.93C459.063 1189.89 459.819 1189.1 460.774 1188.55C461.728 1188 462.802 1187.73 463.995 1187.73C464.782 1187.73 465.511 1187.84 466.183 1188.06C466.859 1188.28 467.458 1188.61 467.979 1189.03C468.501 1189.45 468.925 1189.96 469.252 1190.57C469.583 1191.18 469.795 1191.88 469.888 1192.67Z" fill="#353132"/>
<path d="M471.946 1201.49V1187.92H481.094V1190.28H474.817V1193.52H480.623V1195.88H474.817V1199.12H481.121V1201.49H471.946Z" fill="#353132"/>
<path d="M483.376 1201.49V1187.92H488.732C489.757 1187.92 490.632 1188.1 491.357 1188.47C492.086 1188.83 492.641 1189.34 493.021 1190.01C493.405 1190.67 493.598 1191.45 493.598 1192.35C493.598 1193.25 493.403 1194.03 493.014 1194.68C492.625 1195.32 492.062 1195.82 491.324 1196.16C490.59 1196.51 489.702 1196.68 488.659 1196.68H485.073V1194.37H488.195C488.743 1194.37 489.198 1194.3 489.561 1194.15C489.923 1194 490.193 1193.77 490.369 1193.47C490.551 1193.17 490.641 1192.8 490.641 1192.35C490.641 1191.9 490.551 1191.52 490.369 1191.21C490.193 1190.9 489.921 1190.67 489.554 1190.51C489.192 1190.34 488.734 1190.26 488.182 1190.26H486.246V1201.49H483.376ZM490.708 1195.31L494.082 1201.49H490.913L487.612 1195.31H490.708Z" fill="#353132"/>
<path d="M495.109 1190.28V1187.92H506.259V1190.28H502.102V1201.49H499.265V1190.28H495.109Z" fill="#353132"/>
<path d="M510.965 1187.92V1201.49H508.095V1187.92H510.965Z" fill="#353132"/>
<path d="M513.327 1201.49V1187.92H522.315V1190.28H516.197V1193.52H521.719V1195.88H516.197V1201.49H513.327Z" fill="#353132"/>
<path d="M527.116 1187.92V1201.49H524.246V1187.92H527.116Z" fill="#353132"/>
<path d="M541.456 1192.67H538.552C538.499 1192.29 538.391 1191.96 538.228 1191.67C538.064 1191.37 537.854 1191.12 537.598 1190.91C537.342 1190.7 537.046 1190.55 536.71 1190.43C536.378 1190.32 536.018 1190.27 535.629 1190.27C534.926 1190.27 534.314 1190.44 533.793 1190.79C533.272 1191.14 532.867 1191.64 532.58 1192.3C532.293 1192.96 532.149 1193.76 532.149 1194.7C532.149 1195.67 532.293 1196.48 532.58 1197.14C532.872 1197.8 533.278 1198.3 533.8 1198.63C534.321 1198.97 534.924 1199.14 535.609 1199.14C535.994 1199.14 536.349 1199.09 536.677 1198.99C537.008 1198.88 537.302 1198.74 537.558 1198.54C537.814 1198.34 538.027 1198.1 538.195 1197.82C538.367 1197.54 538.486 1197.21 538.552 1196.85L541.456 1196.86C541.381 1197.49 541.193 1198.09 540.892 1198.67C540.596 1199.24 540.196 1199.76 539.693 1200.21C539.193 1200.66 538.597 1201.02 537.903 1201.29C537.213 1201.55 536.433 1201.68 535.563 1201.68C534.352 1201.68 533.269 1201.4 532.315 1200.85C531.365 1200.31 530.613 1199.51 530.061 1198.48C529.513 1197.44 529.239 1196.18 529.239 1194.7C529.239 1193.22 529.517 1191.96 530.074 1190.93C530.631 1189.89 531.387 1189.1 532.341 1188.55C533.296 1188 534.37 1187.73 535.563 1187.73C536.349 1187.73 537.079 1187.84 537.75 1188.06C538.427 1188.28 539.025 1188.61 539.547 1189.03C540.068 1189.45 540.492 1189.96 540.82 1190.57C541.151 1191.18 541.363 1191.88 541.456 1192.67Z" fill="#353132"/>
<path d="M545.599 1201.49H542.523L547.21 1187.92H550.909L555.588 1201.49H552.513L549.112 1191.02H549.006L545.599 1201.49ZM545.407 1196.16H552.672V1198.4H545.407V1196.16Z" fill="#353132"/>
<path d="M555.047 1190.28V1187.92H566.196V1190.28H562.04V1201.49H559.203V1190.28H555.047Z" fill="#353132"/>
<path d="M570.903 1187.92V1201.49H568.032V1187.92H570.903Z" fill="#353132"/>
<path d="M585.74 1194.7C585.74 1196.18 585.459 1197.44 584.898 1198.48C584.341 1199.52 583.581 1200.31 582.617 1200.86C581.658 1201.41 580.58 1201.68 579.382 1201.68C578.176 1201.68 577.093 1201.4 576.134 1200.85C575.175 1200.31 574.418 1199.51 573.861 1198.48C573.304 1197.44 573.025 1196.18 573.025 1194.7C573.025 1193.22 573.304 1191.96 573.861 1190.93C574.418 1189.89 575.175 1189.1 576.134 1188.55C577.093 1188 578.176 1187.73 579.382 1187.73C580.58 1187.73 581.658 1188 582.617 1188.55C583.581 1189.1 584.341 1189.89 584.898 1190.93C585.459 1191.96 585.74 1193.22 585.74 1194.7ZM582.829 1194.7C582.829 1193.74 582.686 1192.94 582.399 1192.28C582.116 1191.62 581.716 1191.12 581.199 1190.78C580.682 1190.44 580.076 1190.27 579.382 1190.27C578.689 1190.27 578.083 1190.44 577.566 1190.78C577.049 1191.12 576.647 1191.62 576.36 1192.28C576.077 1192.94 575.935 1193.74 575.935 1194.7C575.935 1195.66 576.077 1196.47 576.36 1197.13C576.647 1197.79 577.049 1198.29 577.566 1198.63C578.083 1198.97 578.689 1199.14 579.382 1199.14C580.076 1199.14 580.682 1198.97 581.199 1198.63C581.716 1198.29 582.116 1197.79 582.399 1197.13C582.686 1196.47 582.829 1195.66 582.829 1194.7Z" fill="#353132"/>
<path d="M599.221 1187.92V1201.49H596.742L590.835 1192.95H590.736V1201.49H587.866V1187.92H590.385L596.244 1196.45H596.364V1187.92H599.221Z" fill="#353132"/>
<path fill-rule="evenodd" clip-rule="evenodd" d="M440.48 249.993C440.48 259.821 432.51 267.789 422.678 267.789C412.846 267.789 404.874 259.821 404.874 249.993C404.874 240.165 412.846 232.197 422.678 232.197C432.51 232.197 440.48 240.165 440.48 249.993Z" fill="#353132"/>
<path d="M424.683 252.901C424.419 253.762 423.625 254.396 422.678 254.396C421.729 254.396 420.935 253.762 420.672 252.901H412.482C411.966 252.901 411.478 252.78 411.039 252.571V258.007C411.039 259.067 411.907 259.937 412.97 259.937H432.385C433.447 259.937 434.314 259.067 434.314 258.007V252.573C433.877 252.78 433.39 252.901 432.873 252.901H424.683Z" fill="white"/>
<path d="M419.055 243.139C419.302 242.396 419.996 241.854 420.82 241.854H424.535C425.359 241.854 426.053 242.396 426.3 243.139H419.055ZM432.792 243.139H428.157C427.878 241.391 426.36 240.047 424.535 240.047H420.82C418.993 240.047 417.475 241.391 417.196 243.139H412.562C411.457 243.139 410.551 244.007 410.551 245.07V249.523C410.551 250.591 411.417 251.454 412.482 251.454H420.583C420.608 250.898 420.849 250.398 421.225 250.039C421.235 250.026 421.249 250.02 421.26 250.007C421.346 249.932 421.432 249.859 421.526 249.795C421.56 249.775 421.6 249.759 421.635 249.736C421.713 249.692 421.791 249.644 421.874 249.612C421.939 249.583 422.013 249.567 422.081 249.548C422.142 249.529 422.199 249.505 422.26 249.494C422.394 249.465 422.536 249.451 422.678 249.451C422.821 249.451 422.96 249.465 423.094 249.494C423.156 249.505 423.212 249.529 423.274 249.548C423.342 249.567 423.413 249.583 423.479 249.612C423.562 249.647 423.642 249.692 423.719 249.736C423.754 249.759 423.792 249.775 423.827 249.795C423.921 249.859 424.009 249.932 424.092 250.007C424.103 250.02 424.117 250.026 424.128 250.039C424.506 250.401 424.744 250.898 424.772 251.454H432.873C433.938 251.454 434.802 250.591 434.802 249.524V245.07C434.802 244.007 433.898 243.139 432.792 243.139Z" fill="white"/>
<path fill-rule="evenodd" clip-rule="evenodd" d="M404.504 274.422V275.947H919.749V274.422H404.504Z" fill="#656263"/>
<path d="M457.91 253.765V240.189H467.058V242.556H460.78V245.791H466.587V248.157H460.78V251.399H467.084V253.765H457.91Z" fill="#353132"/>
<path d="M472.031 240.189L474.769 244.816H474.875L477.626 240.189H480.867L476.724 246.977L480.96 253.765H477.659L474.875 249.132H474.769L471.984 253.765H468.697L472.946 246.977L468.776 240.189H472.031Z" fill="#353132"/>
<path d="M482.683 253.765V240.189H488.039C489.069 240.189 489.946 240.386 490.671 240.779C491.396 241.168 491.948 241.71 492.328 242.403C492.713 243.093 492.905 243.888 492.905 244.79C492.905 245.691 492.71 246.487 492.322 247.176C491.933 247.865 491.369 248.402 490.631 248.787C489.898 249.171 489.009 249.364 487.966 249.364H484.553V247.063H487.502C488.055 247.063 488.51 246.968 488.868 246.778C489.23 246.584 489.5 246.317 489.677 245.976C489.858 245.632 489.948 245.236 489.948 244.79C489.948 244.339 489.858 243.946 489.677 243.61C489.5 243.269 489.23 243.007 488.868 242.821C488.506 242.631 488.046 242.536 487.489 242.536H485.554V253.765H482.683Z" fill="#353132"/>
<path d="M494.769 253.765V240.189H503.917V242.556H497.64V245.791H503.446V248.157H497.64V251.399H503.944V253.765H494.769Z" fill="#353132"/>
<path d="M506.199 253.765V240.189H511.555C512.58 240.189 513.455 240.373 514.18 240.739C514.909 241.102 515.464 241.617 515.844 242.284C516.228 242.947 516.421 243.727 516.421 244.624C516.421 245.525 516.226 246.301 515.837 246.951C515.448 247.596 514.885 248.091 514.147 248.436C513.413 248.78 512.525 248.953 511.482 248.953H507.896V246.646H511.018C511.566 246.646 512.021 246.571 512.384 246.42C512.746 246.27 513.016 246.045 513.192 245.744C513.374 245.444 513.464 245.07 513.464 244.624C513.464 244.173 513.374 243.793 513.192 243.484C513.016 243.174 512.744 242.94 512.377 242.781C512.015 242.618 511.557 242.536 511.005 242.536H509.069V253.765H506.199ZM513.53 247.587L516.904 253.765H513.736L510.435 247.587H513.53Z" fill="#353132"/>
<path d="M521.319 240.189V253.765H518.449V240.189H521.319Z" fill="#353132"/>
<path d="M523.681 253.765V240.189H532.828V242.556H526.551V245.791H532.358V248.157H526.551V251.399H532.855V253.765H523.681Z" fill="#353132"/>
<path d="M546.466 240.189V253.765H543.986L538.08 245.221H537.981V253.765H535.11V240.189H537.629L543.489 248.727H543.609V240.189H546.466Z" fill="#353132"/>
<path d="M560.815 244.942H557.912C557.859 244.567 557.75 244.233 557.587 243.941C557.423 243.645 557.214 243.393 556.957 243.186C556.701 242.978 556.405 242.819 556.069 242.708C555.738 242.598 555.377 242.543 554.989 242.543C554.286 242.543 553.674 242.717 553.152 243.066C552.631 243.411 552.227 243.915 551.939 244.578C551.652 245.236 551.508 246.036 551.508 246.977C551.508 247.945 551.652 248.758 551.939 249.417C552.231 250.075 552.637 250.572 553.159 250.908C553.68 251.244 554.284 251.412 554.969 251.412C555.353 251.412 555.709 251.361 556.036 251.259C556.367 251.158 556.661 251.01 556.917 250.815C557.174 250.616 557.386 250.376 557.554 250.093C557.726 249.81 557.846 249.487 557.912 249.125L560.815 249.138C560.74 249.761 560.552 250.362 560.252 250.941C559.956 251.516 559.556 252.031 559.052 252.486C558.553 252.936 557.956 253.294 557.262 253.56C556.573 253.82 555.793 253.951 554.922 253.951C553.711 253.951 552.629 253.677 551.674 253.129C550.724 252.581 549.973 251.787 549.42 250.749C548.872 249.71 548.598 248.453 548.598 246.977C548.598 245.497 548.877 244.237 549.434 243.199C549.99 242.16 550.746 241.369 551.701 240.826C552.655 240.278 553.729 240.004 554.922 240.004C555.709 240.004 556.438 240.114 557.11 240.335C557.786 240.556 558.385 240.879 558.906 241.303C559.428 241.723 559.852 242.238 560.179 242.847C560.51 243.457 560.722 244.156 560.815 244.942Z" fill="#353132"/>
<path d="M562.873 253.765V240.189H572.021V242.556H565.744V245.791H571.551V248.157H565.744V251.399H572.048V253.765H562.873Z" fill="#353132"/>
<path d="M56.9745 336.555H53.8987L58.5853 322.979H62.2841L66.9641 336.555H63.8883L60.4877 326.082H60.3817L56.9745 336.555ZM56.7822 331.219H64.0474V333.459H56.7822V331.219Z" fill="white"/>
<path d="M68.5981 336.555V322.979H74.0337C75.0324 322.979 75.8654 323.127 76.5327 323.423C77.2 323.72 77.7016 324.13 78.0375 324.656C78.3733 325.178 78.5412 325.779 78.5412 326.459C78.5412 326.99 78.4352 327.456 78.2231 327.858C78.0109 328.256 77.7193 328.583 77.3481 328.839C76.9813 329.091 76.5614 329.27 76.0886 329.376V329.509C76.6056 329.531 77.0895 329.677 77.5403 329.946C77.9955 330.216 78.3645 330.594 78.6473 331.08C78.9301 331.561 79.0715 332.136 79.0715 332.803C79.0715 333.523 78.8926 334.166 78.5346 334.732C78.1811 335.293 77.6574 335.737 76.9636 336.065C76.2698 336.392 75.4147 336.555 74.3982 336.555H68.5981ZM71.4683 334.208H73.8083C74.6082 334.208 75.1915 334.056 75.5583 333.751C75.9251 333.442 76.1085 333.031 76.1085 332.518C76.1085 332.142 76.0179 331.811 75.8367 331.524C75.6555 331.237 75.397 331.011 75.0611 330.848C74.7297 330.684 74.3342 330.602 73.8746 330.602H71.4683V334.208ZM71.4683 328.66H73.5962C73.9895 328.66 74.3386 328.592 74.6435 328.455C74.9529 328.313 75.1959 328.114 75.3727 327.858C75.5539 327.602 75.6445 327.295 75.6445 326.937C75.6445 326.446 75.4699 326.051 75.1208 325.75C74.7761 325.45 74.2856 325.299 73.6492 325.299H71.4683V328.66Z" fill="white"/>
<path d="M93.4146 329.767C93.4146 331.248 93.134 332.507 92.5727 333.546C92.0159 334.584 91.2558 335.377 90.2924 335.925C89.3335 336.469 88.2552 336.741 87.0576 336.741C85.8511 336.741 84.7684 336.467 83.8095 335.919C82.8505 335.371 82.0926 334.577 81.5358 333.539C80.979 332.5 80.7006 331.243 80.7006 329.767C80.7006 328.287 80.979 327.027 81.5358 325.989C82.0926 324.95 82.8505 324.159 83.8095 323.616C84.7684 323.068 85.8511 322.794 87.0576 322.794C88.2552 322.794 89.3335 323.068 90.2924 323.616C91.2558 324.159 92.0159 324.95 92.5727 325.989C93.134 327.027 93.4146 328.287 93.4146 329.767ZM90.5045 329.767C90.5045 328.808 90.3609 327.999 90.0737 327.341C89.7908 326.683 89.3909 326.183 88.8739 325.843C88.3568 325.503 87.7514 325.333 87.0576 325.333C86.3638 325.333 85.7583 325.503 85.2413 325.843C84.7242 326.183 84.3221 326.683 84.0348 327.341C83.752 327.999 83.6106 328.808 83.6106 329.767C83.6106 330.726 83.752 331.535 84.0348 332.193C84.3221 332.852 84.7242 333.351 85.2413 333.691C85.7583 334.032 86.3638 334.202 87.0576 334.202C87.7514 334.202 88.3568 334.032 88.8739 333.691C89.3909 333.351 89.7908 332.852 90.0737 332.193C90.3609 331.535 90.5045 330.726 90.5045 329.767Z" fill="white"/>
<path d="M103.926 322.979H106.796V331.796C106.796 332.785 106.56 333.652 106.087 334.394C105.619 335.136 104.962 335.715 104.118 336.131C103.274 336.542 102.291 336.747 101.169 336.747C100.042 336.747 99.0562 336.542 98.2122 336.131C97.3681 335.715 96.7119 335.136 96.2434 334.394C95.775 333.652 95.5408 332.785 95.5408 331.796V322.979H98.411V331.55C98.411 332.067 98.5237 332.527 98.7491 332.929C98.9789 333.331 99.3015 333.647 99.7169 333.877C100.132 334.107 100.616 334.222 101.169 334.222C101.725 334.222 102.209 334.107 102.62 333.877C103.036 333.647 103.356 333.331 103.581 332.929C103.811 332.527 103.926 332.067 103.926 331.55V322.979Z" fill="white"/>
<path d="M108.641 325.346V322.979H119.791V325.346H115.634V336.555H112.797V325.346H108.641Z" fill="white"/>
<path d="M125.947 322.979H129.487L133.225 332.1H133.385L137.123 322.979H140.663V336.555H137.879V327.719H137.766L134.253 336.489H132.357L128.844 327.686H128.731V336.555H125.947V322.979Z" fill="white"/>
<path d="M143.028 336.555V322.979H152.175V325.346H145.898V328.581H151.705V330.947H145.898V334.189H152.202V336.555H143.028Z" fill="white"/>
<path fill-rule="evenodd" clip-rule="evenodd" d="M53.4546 359.286V360.812H346.992V359.286H53.4546Z" fill="white"/>
<path d="M61.9991 815.46C61.9461 814.925 61.7185 814.51 61.3163 814.214C60.9142 813.918 60.3684 813.77 59.679 813.77C59.2106 813.77 58.8151 813.836 58.4925 813.969C58.1699 814.097 57.9224 814.276 57.75 814.506C57.5821 814.735 57.4981 814.996 57.4981 815.288C57.4893 815.531 57.5401 815.743 57.6506 815.924C57.7655 816.105 57.9224 816.262 58.1213 816.395C58.3201 816.523 58.5499 816.636 58.8106 816.733C59.0714 816.826 59.3498 816.905 59.6459 816.971L60.8656 817.263C61.4577 817.396 62.0013 817.572 62.4963 817.793C62.9912 818.014 63.4199 818.286 63.7822 818.609C64.1446 818.931 64.4252 819.311 64.6241 819.749C64.8274 820.186 64.9312 820.688 64.9356 821.254C64.9312 822.085 64.7191 822.805 64.2993 823.415C63.8839 824.02 63.2829 824.491 62.4963 824.827C61.7141 825.158 60.7706 825.324 59.6658 825.324C58.5698 825.324 57.6153 825.156 56.8021 824.82C55.9934 824.484 55.3615 823.987 54.9063 823.328C54.4555 822.666 54.2191 821.846 54.197 820.869H56.9745C57.0054 821.324 57.1358 821.704 57.3656 822.009C57.5998 822.31 57.9113 822.537 58.3002 822.692C58.6935 822.842 59.1377 822.918 59.6326 822.918C60.1187 822.918 60.5408 822.847 60.8987 822.705C61.2611 822.564 61.5417 822.367 61.7406 822.115C61.9394 821.864 62.0389 821.574 62.0389 821.247C62.0389 820.942 61.9483 820.686 61.7671 820.478C61.5903 820.27 61.3296 820.094 60.9849 819.948C60.6446 819.802 60.227 819.669 59.7321 819.55L58.2538 819.179C57.1093 818.9 56.2055 818.465 55.5427 817.873C54.8798 817.281 54.5505 816.483 54.555 815.48C54.5505 814.658 54.7693 813.94 55.2112 813.326C55.6576 812.711 56.2696 812.232 57.0474 811.887C57.8252 811.543 58.709 811.37 59.6989 811.37C60.7065 811.37 61.5859 811.543 62.3372 811.887C63.0928 812.232 63.6806 812.711 64.1004 813.326C64.5202 813.94 64.7368 814.651 64.75 815.46H61.9991Z" fill="white"/>
<path d="M66.8663 825.132V811.556H69.7365V817.542H69.9155L74.8009 811.556H78.2413L73.2034 817.634L78.3009 825.132H74.8672L71.1485 819.55L69.7365 821.274V825.132H66.8663Z" fill="white"/>
<path d="M82.6063 811.556V825.132H79.7361V811.556H82.6063Z" fill="white"/>
<path d="M84.9678 825.132V811.556H87.8381V822.765H93.6582V825.132H84.9678Z" fill="white"/>
<path d="M95.559 825.132V811.556H98.4293V822.765H104.249V825.132H95.559Z" fill="white"/>
<path d="M113.515 815.46C113.462 814.925 113.234 814.51 112.832 814.214C112.43 813.918 111.884 813.77 111.195 813.77C110.726 813.77 110.331 813.836 110.008 813.969C109.685 814.097 109.438 814.276 109.266 814.506C109.098 814.735 109.014 814.996 109.014 815.288C109.005 815.531 109.056 815.743 109.166 815.924C109.281 816.105 109.438 816.262 109.637 816.395C109.836 816.523 110.066 816.636 110.326 816.733C110.587 816.826 110.865 816.905 111.161 816.971L112.381 817.263C112.973 817.396 113.517 817.572 114.012 817.793C114.507 818.014 114.935 818.286 115.298 818.609C115.66 818.931 115.941 819.311 116.14 819.749C116.343 820.186 116.447 820.688 116.451 821.254C116.447 822.085 116.235 822.805 115.815 823.415C115.4 824.02 114.798 824.491 114.012 824.827C113.23 825.158 112.286 825.324 111.181 825.324C110.085 825.324 109.131 825.156 108.318 824.82C107.509 824.484 106.877 823.987 106.422 823.328C105.971 822.666 105.735 821.846 105.713 820.869H108.49C108.521 821.324 108.651 821.704 108.881 822.009C109.115 822.31 109.427 822.537 109.816 822.692C110.209 822.842 110.653 822.918 111.148 822.918C111.634 822.918 112.056 822.847 112.414 822.705C112.777 822.564 113.057 822.367 113.256 822.115C113.455 821.864 113.554 821.574 113.554 821.247C113.554 820.942 113.464 820.686 113.283 820.478C113.106 820.27 112.845 820.094 112.501 819.948C112.16 819.802 111.743 819.669 111.248 819.55L109.769 819.179C108.625 818.9 107.721 818.465 107.058 817.873C106.395 817.281 106.066 816.483 106.071 815.48C106.066 814.658 106.285 813.94 106.727 813.326C107.173 812.711 107.785 812.232 108.563 811.887C109.341 811.543 110.225 811.37 111.215 811.37C112.222 811.37 113.102 811.543 113.853 811.887C114.608 812.232 115.196 812.711 115.616 813.326C116.036 813.94 116.252 814.651 116.266 815.46H113.515Z" fill="white"/>
<path fill-rule="evenodd" clip-rule="evenodd" d="M53.4546 847.862V849.388H346.992V847.862H53.4546Z" fill="white"/>
<path d="M54.6345 1110.13V1096.56H57.5048V1107.77H63.3249V1110.13H54.6345Z" fill="white"/>
<path d="M67.912 1110.13H64.8362L69.5228 1096.56H73.2216L77.9016 1110.13H74.8258L71.4252 1099.66H71.3192L67.912 1110.13ZM67.7197 1104.8H74.9849V1107.04H67.7197V1104.8Z" fill="white"/>
<path d="M90.8907 1096.56V1110.13H88.4115L82.5052 1101.59H82.4058V1110.13H79.5356V1096.56H82.0545L87.9143 1105.09H88.0337V1096.56H90.8907Z" fill="white"/>
<path d="M102.264 1100.94C102.171 1100.62 102.041 1100.34 101.873 1100.09C101.705 1099.84 101.499 1099.62 101.256 1099.45C101.018 1099.28 100.744 1099.14 100.434 1099.05C100.13 1098.96 99.7915 1098.91 99.4203 1098.91C98.7264 1098.91 98.1166 1099.08 97.5907 1099.43C97.0692 1099.77 96.6627 1100.27 96.371 1100.93C96.0794 1101.58 95.9335 1102.38 95.9335 1103.33C95.9335 1104.28 96.0771 1105.08 96.3644 1105.74C96.6516 1106.41 97.0582 1106.91 97.5841 1107.26C98.11 1107.61 98.7309 1107.78 99.4468 1107.78C100.096 1107.78 100.651 1107.66 101.111 1107.43C101.575 1107.2 101.928 1106.87 102.171 1106.45C102.419 1106.02 102.542 1105.52 102.542 1104.94L103.126 1105.03H99.6258V1102.87H105.307V1104.58C105.307 1105.77 105.055 1106.8 104.551 1107.65C104.047 1108.51 103.353 1109.16 102.47 1109.63C101.586 1110.09 100.574 1110.32 99.4335 1110.32C98.1608 1110.32 97.0427 1110.04 96.0794 1109.48C95.116 1108.91 94.3647 1108.11 93.8256 1107.07C93.2908 1106.03 93.0235 1104.79 93.0235 1103.36C93.0235 1102.26 93.1826 1101.28 93.5008 1100.41C93.8234 1099.55 94.2741 1098.81 94.853 1098.21C95.4319 1097.61 96.1059 1097.15 96.8748 1096.84C97.6437 1096.53 98.4768 1096.37 99.3739 1096.37C100.143 1096.37 100.859 1096.48 101.522 1096.71C102.184 1096.93 102.772 1097.24 103.285 1097.65C103.802 1098.06 104.224 1098.54 104.551 1099.1C104.878 1099.66 105.088 1100.27 105.181 1100.94H102.264Z" fill="white"/>
<path d="M115.848 1096.56H118.718V1105.37C118.718 1106.36 118.482 1107.23 118.009 1107.97C117.541 1108.71 116.884 1109.29 116.04 1109.71C115.196 1110.12 114.213 1110.32 113.09 1110.32C111.964 1110.32 110.978 1110.12 110.134 1109.71C109.29 1109.29 108.634 1108.71 108.165 1107.97C107.697 1107.23 107.463 1106.36 107.463 1105.37V1096.56H110.333V1105.13C110.333 1105.64 110.446 1106.1 110.671 1106.51C110.901 1106.91 111.223 1107.22 111.639 1107.45C112.054 1107.68 112.538 1107.8 113.09 1107.8C113.647 1107.8 114.131 1107.68 114.542 1107.45C114.958 1107.22 115.278 1106.91 115.503 1106.51C115.733 1106.1 115.848 1105.64 115.848 1105.13V1096.56Z" fill="white"/>
<path d="M123.42 1110.13H120.344L125.031 1096.56H128.729L133.409 1110.13H130.334L126.933 1099.66H126.827L123.42 1110.13ZM123.228 1104.8H130.493V1107.04H123.228V1104.8Z" fill="white"/>
<path d="M143.407 1100.94C143.314 1100.62 143.184 1100.34 143.016 1100.09C142.848 1099.84 142.643 1099.62 142.4 1099.45C142.161 1099.28 141.887 1099.14 141.578 1099.05C141.273 1098.96 140.935 1098.91 140.563 1098.91C139.87 1098.91 139.26 1099.08 138.734 1099.43C138.212 1099.77 137.806 1100.27 137.514 1100.93C137.223 1101.58 137.077 1102.38 137.077 1103.33C137.077 1104.28 137.22 1105.08 137.508 1105.74C137.795 1106.41 138.201 1106.91 138.727 1107.26C139.253 1107.61 139.874 1107.78 140.59 1107.78C141.24 1107.78 141.794 1107.66 142.254 1107.43C142.718 1107.2 143.071 1106.87 143.314 1106.45C143.562 1106.02 143.686 1105.52 143.686 1104.94L144.269 1105.03H140.769V1102.87H146.45V1104.58C146.45 1105.77 146.198 1106.8 145.694 1107.65C145.19 1108.51 144.497 1109.16 143.613 1109.63C142.729 1110.09 141.717 1110.32 140.577 1110.32C139.304 1110.32 138.186 1110.04 137.223 1109.48C136.259 1108.91 135.508 1108.11 134.969 1107.07C134.434 1106.03 134.167 1104.79 134.167 1103.36C134.167 1102.26 134.326 1101.28 134.644 1100.41C134.967 1099.55 135.417 1098.81 135.996 1098.21C136.575 1097.61 137.249 1097.15 138.018 1096.84C138.787 1096.53 139.62 1096.37 140.517 1096.37C141.286 1096.37 142.002 1096.48 142.665 1096.71C143.328 1096.93 143.915 1097.24 144.428 1097.65C144.945 1098.06 145.367 1098.54 145.694 1099.1C146.021 1099.66 146.231 1100.27 146.324 1100.94H143.407Z" fill="white"/>
<path d="M148.606 1110.13V1096.56H157.754V1098.92H151.476V1102.16H157.283V1104.52H151.476V1107.77H157.78V1110.13H148.606Z" fill="white"/>
<path fill-rule="evenodd" clip-rule="evenodd" d="M53.4546 1132.86V1134.39H346.992V1132.86H53.4546Z" fill="white"/>
<path d="M102.776 574.421H100.359L104.042 563.754H106.948L110.625 574.421H108.208L105.536 566.192H105.453L102.776 574.421ZM102.625 570.228H108.333V571.988H102.625V570.228Z" fill="white"/>
<path d="M114.443 574.551C113.835 574.551 113.285 574.395 112.792 574.082C112.302 573.766 111.913 573.303 111.625 572.692C111.34 572.077 111.198 571.324 111.198 570.431C111.198 569.514 111.345 568.752 111.641 568.145C111.936 567.534 112.328 567.077 112.818 566.775C113.311 566.469 113.851 566.317 114.437 566.317C114.885 566.317 115.259 566.393 115.557 566.546C115.859 566.695 116.102 566.883 116.286 567.108C116.474 567.33 116.616 567.549 116.713 567.764H116.781V563.754H118.995V574.421H116.807V573.139H116.713C116.609 573.362 116.462 573.582 116.271 573.801C116.083 574.016 115.838 574.195 115.536 574.337C115.238 574.48 114.873 574.551 114.443 574.551ZM115.146 572.785C115.503 572.785 115.805 572.688 116.052 572.494C116.302 572.296 116.493 572.02 116.625 571.666C116.76 571.311 116.828 570.896 116.828 570.421C116.828 569.945 116.762 569.532 116.63 569.181C116.498 568.83 116.307 568.56 116.057 568.369C115.807 568.178 115.503 568.082 115.146 568.082C114.781 568.082 114.474 568.181 114.224 568.379C113.974 568.577 113.785 568.851 113.656 569.202C113.528 569.553 113.463 569.959 113.463 570.421C113.463 570.886 113.528 571.297 113.656 571.655C113.788 572.009 113.977 572.287 114.224 572.488C114.474 572.686 114.781 572.785 115.146 572.785Z" fill="white"/>
<path d="M123.767 574.551C123.159 574.551 122.609 574.395 122.116 574.082C121.626 573.766 121.237 573.303 120.949 572.692C120.664 572.077 120.522 571.324 120.522 570.431C120.522 569.514 120.67 568.752 120.965 568.145C121.26 567.534 121.652 567.077 122.142 566.775C122.635 566.469 123.175 566.317 123.762 566.317C124.21 566.317 124.583 566.393 124.881 566.546C125.183 566.695 125.427 566.883 125.611 567.108C125.798 567.33 125.94 567.549 126.038 567.764H126.105V563.754H128.319V574.421H126.131V573.139H126.038C125.933 573.362 125.786 573.582 125.595 573.801C125.407 574.016 125.163 574.195 124.861 574.337C124.562 574.48 124.197 574.551 123.767 574.551ZM124.47 572.785C124.828 572.785 125.13 572.688 125.376 572.494C125.626 572.296 125.817 572.02 125.949 571.666C126.085 571.311 126.152 570.896 126.152 570.421C126.152 569.945 126.086 569.532 125.954 569.181C125.822 568.83 125.631 568.56 125.381 568.369C125.131 568.178 124.828 568.082 124.47 568.082C124.105 568.082 123.798 568.181 123.548 568.379C123.298 568.577 123.109 568.851 122.98 569.202C122.852 569.553 122.788 569.959 122.788 570.421C122.788 570.886 122.852 571.297 122.98 571.655C123.112 572.009 123.302 572.287 123.548 572.488C123.798 572.686 124.105 572.785 124.47 572.785Z" fill="white"/>
<path d="M130.143 574.421V566.421H132.294V567.817H132.377C132.523 567.32 132.768 566.945 133.112 566.692C133.456 566.435 133.851 566.306 134.299 566.306C134.41 566.306 134.53 566.313 134.659 566.327C134.787 566.341 134.9 566.36 134.997 566.384V568.353C134.893 568.322 134.749 568.294 134.565 568.27C134.381 568.245 134.213 568.233 134.06 568.233C133.733 568.233 133.442 568.304 133.185 568.447C132.931 568.586 132.73 568.78 132.581 569.03C132.435 569.28 132.362 569.568 132.362 569.895V574.421H130.143Z" fill="white"/>
<path d="M139.418 574.577C138.595 574.577 137.887 574.41 137.293 574.077C136.703 573.74 136.248 573.264 135.928 572.65C135.609 572.032 135.449 571.301 135.449 570.457C135.449 569.634 135.609 568.912 135.928 568.291C136.248 567.669 136.697 567.185 137.277 566.837C137.861 566.49 138.545 566.317 139.329 566.317C139.857 566.317 140.348 566.402 140.803 566.572C141.262 566.738 141.661 566.99 142.001 567.327C142.345 567.664 142.612 568.087 142.803 568.598C142.994 569.105 143.09 569.699 143.09 570.379V570.988H136.335V569.613H141.001C141.001 569.294 140.932 569.011 140.793 568.764C140.654 568.518 140.461 568.325 140.215 568.186C139.972 568.044 139.689 567.973 139.366 567.973C139.029 567.973 138.73 568.051 138.47 568.207C138.213 568.36 138.012 568.567 137.866 568.827C137.72 569.084 137.645 569.37 137.642 569.686V570.994C137.642 571.389 137.715 571.732 137.861 572.02C138.01 572.308 138.22 572.53 138.491 572.686C138.762 572.843 139.083 572.921 139.454 572.921C139.701 572.921 139.927 572.886 140.131 572.817C140.336 572.747 140.512 572.643 140.657 572.504C140.803 572.365 140.914 572.195 140.991 571.994L143.043 572.129C142.939 572.622 142.725 573.053 142.402 573.421C142.083 573.785 141.67 574.07 141.163 574.275C140.659 574.476 140.078 574.577 139.418 574.577Z" fill="white"/>
<path d="M151.194 568.702L149.163 568.827C149.128 568.653 149.053 568.497 148.939 568.358C148.824 568.216 148.673 568.103 148.486 568.02C148.302 567.933 148.081 567.889 147.824 567.889C147.48 567.889 147.19 567.962 146.954 568.108C146.718 568.251 146.6 568.442 146.6 568.681C146.6 568.872 146.677 569.034 146.829 569.166C146.982 569.297 147.244 569.403 147.616 569.483L149.064 569.775C149.841 569.935 150.421 570.192 150.803 570.546C151.185 570.9 151.376 571.365 151.376 571.942C151.376 572.466 151.222 572.926 150.913 573.322C150.607 573.718 150.187 574.027 149.652 574.249C149.121 574.468 148.508 574.577 147.814 574.577C146.755 574.577 145.911 574.356 145.282 573.916C144.657 573.471 144.291 572.867 144.183 572.103L146.366 571.988C146.432 572.311 146.591 572.558 146.845 572.728C147.098 572.895 147.423 572.978 147.819 572.978C148.208 572.978 148.52 572.903 148.756 572.754C148.996 572.601 149.118 572.405 149.121 572.166C149.118 571.964 149.032 571.799 148.866 571.671C148.699 571.539 148.442 571.438 148.095 571.369L146.71 571.093C145.928 570.936 145.347 570.666 144.965 570.28C144.586 569.895 144.397 569.403 144.397 568.806C144.397 568.292 144.536 567.85 144.814 567.478C145.095 567.106 145.489 566.82 145.996 566.619C146.506 566.417 147.104 566.317 147.788 566.317C148.798 566.317 149.593 566.53 150.173 566.957C150.756 567.384 151.097 567.966 151.194 568.702Z" fill="white"/>
<path d="M159.43 568.702L157.398 568.827C157.364 568.653 157.289 568.497 157.174 568.358C157.06 568.216 156.909 568.103 156.721 568.02C156.537 567.933 156.317 567.889 156.06 567.889C155.716 567.889 155.426 567.962 155.19 568.108C154.954 568.251 154.836 568.442 154.836 568.681C154.836 568.872 154.912 569.034 155.065 569.166C155.218 569.297 155.48 569.403 155.851 569.483L157.299 569.775C158.077 569.935 158.657 570.192 159.039 570.546C159.421 570.9 159.612 571.365 159.612 571.942C159.612 572.466 159.457 572.926 159.148 573.322C158.843 573.718 158.423 574.027 157.888 574.249C157.357 574.468 156.744 574.577 156.049 574.577C154.99 574.577 154.147 574.356 153.518 573.916C152.893 573.471 152.527 572.867 152.419 572.103L154.601 571.988C154.667 572.311 154.827 572.558 155.081 572.728C155.334 572.895 155.659 572.978 156.055 572.978C156.443 572.978 156.756 572.903 156.992 572.754C157.232 572.601 157.353 572.405 157.357 572.166C157.353 571.964 157.268 571.799 157.101 571.671C156.935 571.539 156.678 571.438 156.331 571.369L154.945 571.093C154.164 570.936 153.582 570.666 153.2 570.28C152.822 569.895 152.633 569.403 152.633 568.806C152.633 568.292 152.772 567.85 153.049 567.478C153.331 567.106 153.725 566.82 154.232 566.619C154.742 566.417 155.339 566.317 156.023 566.317C157.034 566.317 157.829 566.53 158.409 566.957C158.992 567.384 159.332 567.966 159.43 568.702Z" fill="white"/>
<path d="M100.796 656.825V646.158H105.004C105.813 646.158 106.503 646.313 107.072 646.622C107.641 646.927 108.076 647.353 108.374 647.898C108.676 648.439 108.827 649.064 108.827 649.773C108.827 650.481 108.674 651.106 108.369 651.648C108.063 652.189 107.621 652.611 107.041 652.913C106.464 653.215 105.766 653.366 104.947 653.366H102.265V651.559H104.582C105.016 651.559 105.374 651.484 105.655 651.335C105.94 651.182 106.152 650.972 106.291 650.705C106.433 650.434 106.504 650.123 106.504 649.773C106.504 649.418 106.433 649.109 106.291 648.846C106.152 648.578 105.94 648.372 105.655 648.226C105.371 648.076 105.01 648.002 104.572 648.002H103.051V656.825H100.796Z" fill="white"/>
<path d="M112.469 652.2V656.825H110.25V646.158H112.407V650.236H112.5C112.681 649.764 112.973 649.394 113.375 649.127C113.778 648.856 114.283 648.721 114.891 648.721C115.447 648.721 115.931 648.842 116.344 649.085C116.761 649.325 117.084 649.67 117.313 650.122C117.546 650.569 117.66 651.106 117.657 651.731V656.825H115.438V652.127C115.441 651.634 115.316 651.25 115.063 650.976C114.813 650.701 114.462 650.564 114.011 650.564C113.709 650.564 113.441 650.629 113.209 650.757C112.98 650.885 112.799 651.073 112.667 651.32C112.539 651.563 112.473 651.856 112.469 652.2Z" fill="white"/>
<path d="M123.017 656.981C122.208 656.981 121.509 656.809 120.918 656.465C120.332 656.118 119.878 655.636 119.559 655.017C119.24 654.396 119.08 653.675 119.08 652.856C119.08 652.03 119.24 651.307 119.559 650.689C119.878 650.068 120.332 649.585 120.918 649.241C121.509 648.894 122.208 648.721 123.017 648.721C123.826 648.721 124.524 648.894 125.111 649.241C125.701 649.585 126.156 650.068 126.476 650.689C126.795 651.307 126.955 652.03 126.955 652.856C126.955 653.675 126.795 654.396 126.476 655.017C126.156 655.636 125.701 656.118 125.111 656.465C124.524 656.809 123.826 656.981 123.017 656.981ZM123.028 655.262C123.396 655.262 123.703 655.158 123.95 654.95C124.196 654.738 124.382 654.45 124.507 654.085C124.635 653.721 124.7 653.306 124.7 652.84C124.7 652.375 124.635 651.96 124.507 651.596C124.382 651.231 124.196 650.943 123.95 650.731C123.703 650.519 123.396 650.413 123.028 650.413C122.656 650.413 122.344 650.519 122.09 650.731C121.84 650.943 121.651 651.231 121.523 651.596C121.398 651.96 121.335 652.375 121.335 652.84C121.335 653.306 121.398 653.721 121.523 654.085C121.651 654.45 121.84 654.738 122.09 654.95C122.344 655.158 122.656 655.262 123.028 655.262Z" fill="white"/>
<path d="M130.616 652.2V656.825H128.398V648.825H130.512V650.236H130.606C130.783 649.771 131.08 649.403 131.497 649.132C131.913 648.858 132.418 648.721 133.012 648.721C133.568 648.721 134.052 648.842 134.465 649.085C134.878 649.328 135.2 649.675 135.429 650.127C135.658 650.575 135.773 651.109 135.773 651.731V656.825H133.554V652.127C133.557 651.637 133.432 651.255 133.179 650.981C132.925 650.703 132.576 650.564 132.132 650.564C131.833 650.564 131.569 650.629 131.34 650.757C131.115 650.885 130.937 651.073 130.809 651.32C130.684 651.563 130.62 651.856 130.616 652.2Z" fill="white"/>
<path d="M141.167 656.981C140.344 656.981 139.636 656.814 139.042 656.481C138.452 656.144 137.997 655.668 137.678 655.054C137.358 654.436 137.198 653.705 137.198 652.861C137.198 652.038 137.358 651.316 137.678 650.695C137.997 650.073 138.447 649.589 139.026 649.241C139.61 648.894 140.294 648.721 141.079 648.721C141.606 648.721 142.098 648.806 142.553 648.976C143.011 649.142 143.41 649.394 143.75 649.731C144.094 650.068 144.362 650.491 144.553 651.002C144.743 651.509 144.839 652.103 144.839 652.783V653.392H138.084V652.017H142.75C142.75 651.698 142.681 651.415 142.542 651.168C142.403 650.922 142.211 650.729 141.964 650.59C141.721 650.448 141.438 650.377 141.115 650.377C140.778 650.377 140.48 650.455 140.219 650.611C139.962 650.764 139.761 650.971 139.615 651.231C139.469 651.488 139.395 651.774 139.391 652.09V653.398C139.391 653.793 139.464 654.136 139.61 654.424C139.759 654.712 139.969 654.934 140.24 655.09C140.511 655.247 140.832 655.325 141.204 655.325C141.45 655.325 141.676 655.29 141.881 655.221C142.086 655.151 142.261 655.047 142.407 654.908C142.553 654.769 142.664 654.599 142.74 654.398L144.792 654.533C144.688 655.026 144.474 655.457 144.151 655.825C143.832 656.189 143.419 656.474 142.912 656.679C142.408 656.88 141.827 656.981 141.167 656.981Z" fill="white"/>
<path d="M106.714 724.401C106.672 723.981 106.493 723.655 106.177 723.422C105.861 723.189 105.432 723.073 104.891 723.073C104.523 723.073 104.212 723.125 103.958 723.229C103.705 723.33 103.511 723.471 103.375 723.651C103.243 723.832 103.177 724.036 103.177 724.266C103.17 724.457 103.21 724.623 103.297 724.766C103.387 724.908 103.511 725.031 103.667 725.135C103.823 725.236 104.004 725.325 104.208 725.401C104.413 725.474 104.632 725.536 104.865 725.589L105.823 725.818C106.288 725.922 106.715 726.061 107.104 726.234C107.493 726.408 107.83 726.622 108.115 726.875C108.399 727.128 108.62 727.427 108.776 727.771C108.936 728.115 109.017 728.509 109.021 728.953C109.017 729.606 108.851 730.172 108.521 730.651C108.195 731.127 107.722 731.497 107.104 731.76C106.49 732.021 105.748 732.151 104.88 732.151C104.019 732.151 103.269 732.019 102.63 731.755C101.995 731.491 101.498 731.101 101.141 730.583C100.787 730.062 100.601 729.418 100.583 728.651H102.766C102.79 729.009 102.892 729.307 103.073 729.547C103.257 729.783 103.502 729.962 103.807 730.083C104.116 730.201 104.465 730.26 104.854 730.26C105.236 730.26 105.568 730.205 105.849 730.094C106.134 729.983 106.354 729.828 106.511 729.63C106.667 729.432 106.745 729.205 106.745 728.948C106.745 728.708 106.674 728.507 106.531 728.344C106.392 728.181 106.188 728.042 105.917 727.927C105.649 727.812 105.321 727.708 104.932 727.615L103.771 727.323C102.872 727.104 102.162 726.762 101.641 726.297C101.12 725.832 100.861 725.205 100.865 724.417C100.861 723.771 101.033 723.207 101.38 722.724C101.731 722.241 102.212 721.865 102.823 721.594C103.434 721.323 104.129 721.188 104.906 721.188C105.698 721.188 106.389 721.323 106.979 721.594C107.573 721.865 108.035 722.241 108.365 722.724C108.695 723.207 108.865 723.766 108.875 724.401H106.714Z" fill="white"/>
<path d="M114.111 732.156C113.302 732.156 112.602 731.984 112.012 731.641C111.425 731.293 110.972 730.811 110.652 730.193C110.333 729.571 110.173 728.851 110.173 728.031C110.173 727.205 110.333 726.483 110.652 725.865C110.972 725.243 111.425 724.76 112.012 724.417C112.602 724.069 113.302 723.896 114.111 723.896C114.92 723.896 115.618 724.069 116.205 724.417C116.795 724.76 117.25 725.243 117.569 725.865C117.889 726.483 118.048 727.205 118.048 728.031C118.048 728.851 117.889 729.571 117.569 730.193C117.25 730.811 116.795 731.293 116.205 731.641C115.618 731.984 114.92 732.156 114.111 732.156ZM114.121 730.438C114.489 730.438 114.797 730.333 115.043 730.125C115.29 729.913 115.475 729.625 115.6 729.26C115.729 728.896 115.793 728.481 115.793 728.016C115.793 727.55 115.729 727.135 115.6 726.771C115.475 726.406 115.29 726.118 115.043 725.906C114.797 725.694 114.489 725.589 114.121 725.589C113.75 725.589 113.437 725.694 113.184 725.906C112.934 726.118 112.744 726.406 112.616 726.771C112.491 727.135 112.429 727.55 112.429 728.016C112.429 728.481 112.491 728.896 112.616 729.26C112.744 729.625 112.934 729.913 113.184 730.125C113.437 730.333 113.75 730.438 114.121 730.438Z" fill="white"/>
<path d="M123.106 732.156C122.286 732.156 121.581 731.983 120.991 731.635C120.404 731.285 119.953 730.799 119.637 730.177C119.324 729.556 119.168 728.84 119.168 728.031C119.168 727.212 119.326 726.493 119.642 725.875C119.961 725.253 120.415 724.769 121.001 724.422C121.588 724.071 122.286 723.896 123.095 723.896C123.793 723.896 124.404 724.023 124.929 724.276C125.453 724.53 125.868 724.885 126.173 725.344C126.479 725.802 126.647 726.34 126.679 726.958H124.585C124.526 726.559 124.369 726.238 124.116 725.995C123.866 725.748 123.538 725.625 123.132 725.625C122.788 725.625 122.488 725.719 122.231 725.906C121.977 726.09 121.779 726.359 121.637 726.714C121.494 727.068 121.423 727.497 121.423 728C121.423 728.51 121.493 728.944 121.632 729.302C121.774 729.66 121.974 729.932 122.231 730.12C122.488 730.307 122.788 730.401 123.132 730.401C123.385 730.401 123.613 730.349 123.814 730.245C124.019 730.141 124.187 729.99 124.319 729.792C124.455 729.59 124.543 729.349 124.585 729.068H126.679C126.644 729.679 126.477 730.217 126.179 730.682C125.883 731.144 125.475 731.505 124.955 731.766C124.434 732.026 123.817 732.156 123.106 732.156Z" fill="white"/>
<path d="M128.099 732V724H130.318V732H128.099ZM129.214 722.969C128.884 722.969 128.601 722.859 128.365 722.641C128.132 722.418 128.016 722.153 128.016 721.844C128.016 721.538 128.132 721.276 128.365 721.057C128.601 720.835 128.884 720.724 129.214 720.724C129.544 720.724 129.825 720.835 130.057 721.057C130.294 721.276 130.412 721.538 130.412 721.844C130.412 722.153 130.294 722.418 130.057 722.641C129.825 722.859 129.544 722.969 129.214 722.969Z" fill="white"/>
<path d="M134.376 732.151C133.866 732.151 133.411 732.063 133.012 731.885C132.613 731.705 132.297 731.439 132.064 731.089C131.835 730.734 131.72 730.293 131.72 729.766C131.72 729.321 131.802 728.948 131.965 728.646C132.128 728.344 132.35 728.101 132.632 727.917C132.913 727.733 133.232 727.594 133.59 727.5C133.951 727.406 134.33 727.34 134.725 727.302C135.191 727.253 135.566 727.208 135.85 727.167C136.135 727.122 136.342 727.056 136.47 726.969C136.599 726.882 136.663 726.753 136.663 726.583V726.552C136.663 726.222 136.559 725.967 136.35 725.786C136.146 725.606 135.854 725.516 135.475 725.516C135.076 725.516 134.758 725.604 134.522 725.781C134.286 725.955 134.13 726.174 134.053 726.438L132.001 726.271C132.106 725.785 132.31 725.365 132.616 725.01C132.922 724.653 133.316 724.378 133.798 724.188C134.284 723.993 134.847 723.896 135.486 723.896C135.93 723.896 136.356 723.948 136.762 724.052C137.172 724.156 137.534 724.318 137.85 724.536C138.17 724.755 138.422 725.036 138.606 725.38C138.79 725.72 138.882 726.128 138.882 726.604V732H136.777V730.891H136.715C136.586 731.141 136.415 731.361 136.199 731.552C135.984 731.74 135.725 731.887 135.423 731.995C135.121 732.099 134.772 732.151 134.376 732.151ZM135.012 730.62C135.338 730.62 135.626 730.556 135.876 730.427C136.126 730.295 136.323 730.118 136.465 729.896C136.607 729.674 136.679 729.422 136.679 729.141V728.292C136.609 728.337 136.514 728.378 136.392 728.417C136.274 728.451 136.14 728.484 135.991 728.516C135.842 728.543 135.692 728.569 135.543 728.594C135.394 728.615 135.258 728.634 135.137 728.651C134.876 728.689 134.649 728.75 134.455 728.833C134.26 728.917 134.109 729.03 134.001 729.172C133.894 729.311 133.84 729.484 133.84 729.693C133.84 729.995 133.949 730.226 134.168 730.385C134.39 730.542 134.672 730.62 135.012 730.62Z" fill="white"/>
<path d="M142.822 721.333V732H140.603V721.333H142.822Z" fill="white"/>
<path d="M148.035 721.333H150.817L153.754 728.5H153.879L156.817 721.333H159.598V732H157.41V725.057H157.322L154.561 731.948H153.072L150.311 725.031H150.223V732H148.035V721.333Z" fill="white"/>
<path d="M165.06 732.156C164.237 732.156 163.529 731.99 162.935 731.656C162.345 731.319 161.89 730.844 161.57 730.229C161.251 729.611 161.091 728.88 161.091 728.036C161.091 727.214 161.251 726.491 161.57 725.87C161.89 725.248 162.34 724.764 162.919 724.417C163.503 724.069 164.187 723.896 164.971 723.896C165.499 723.896 165.991 723.981 166.445 724.151C166.904 724.318 167.303 724.569 167.643 724.906C167.987 725.243 168.254 725.667 168.445 726.177C168.636 726.684 168.732 727.278 168.732 727.958V728.568H161.977V727.193H166.643C166.643 726.873 166.574 726.59 166.435 726.344C166.296 726.097 166.103 725.905 165.857 725.766C165.614 725.623 165.331 725.552 165.008 725.552C164.671 725.552 164.373 725.63 164.112 725.786C163.855 725.939 163.654 726.146 163.508 726.406C163.362 726.663 163.287 726.95 163.284 727.266V728.573C163.284 728.969 163.357 729.311 163.503 729.599C163.652 729.887 163.862 730.109 164.133 730.266C164.404 730.422 164.725 730.5 165.096 730.5C165.343 730.5 165.569 730.465 165.774 730.396C165.978 730.326 166.154 730.222 166.3 730.083C166.445 729.944 166.557 729.774 166.633 729.573L168.685 729.708C168.581 730.201 168.367 730.632 168.044 731C167.725 731.365 167.312 731.649 166.805 731.854C166.301 732.056 165.72 732.156 165.06 732.156Z" fill="white"/>
<path d="M173.128 732.13C172.52 732.13 171.97 731.974 171.477 731.661C170.987 731.345 170.598 730.882 170.31 730.271C170.025 729.656 169.883 728.903 169.883 728.01C169.883 727.094 170.03 726.332 170.326 725.724C170.621 725.113 171.013 724.656 171.503 724.354C171.996 724.049 172.536 723.896 173.123 723.896C173.57 723.896 173.944 723.972 174.242 724.125C174.544 724.274 174.787 724.462 174.971 724.688C175.159 724.91 175.301 725.128 175.399 725.344H175.466V721.333H177.68V732H175.492V730.719H175.399C175.294 730.941 175.147 731.161 174.956 731.38C174.768 731.595 174.524 731.774 174.221 731.917C173.923 732.059 173.558 732.13 173.128 732.13ZM173.831 730.365C174.188 730.365 174.491 730.267 174.737 730.073C174.987 729.875 175.178 729.599 175.31 729.245C175.445 728.891 175.513 728.476 175.513 728C175.513 727.524 175.447 727.111 175.315 726.76C175.183 726.41 174.992 726.139 174.742 725.948C174.492 725.757 174.188 725.661 173.831 725.661C173.466 725.661 173.159 725.76 172.909 725.958C172.659 726.156 172.47 726.431 172.341 726.781C172.213 727.132 172.149 727.538 172.149 728C172.149 728.465 172.213 728.877 172.341 729.234C172.473 729.589 172.662 729.866 172.909 730.068C173.159 730.266 173.466 730.365 173.831 730.365Z" fill="white"/>
<path d="M179.504 732V724H181.723V732H179.504ZM180.619 722.969C180.289 722.969 180.006 722.859 179.77 722.641C179.537 722.418 179.421 722.153 179.421 721.844C179.421 721.538 179.537 721.276 179.77 721.057C180.006 720.835 180.289 720.724 180.619 720.724C180.948 720.724 181.23 720.835 181.462 721.057C181.698 721.276 181.817 721.538 181.817 721.844C181.817 722.153 181.698 722.418 181.462 722.641C181.23 722.859 180.948 722.969 180.619 722.969Z" fill="white"/>
<path d="M185.781 732.151C185.271 732.151 184.816 732.063 184.417 731.885C184.017 731.705 183.702 731.439 183.469 731.089C183.24 730.734 183.125 730.293 183.125 729.766C183.125 729.321 183.207 728.948 183.37 728.646C183.533 728.344 183.755 728.101 184.037 727.917C184.318 727.733 184.637 727.594 184.995 727.5C185.356 727.406 185.734 727.34 186.13 727.302C186.596 727.253 186.971 727.208 187.255 727.167C187.54 727.122 187.747 727.056 187.875 726.969C188.004 726.882 188.068 726.753 188.068 726.583V726.552C188.068 726.222 187.964 725.967 187.755 725.786C187.55 725.606 187.259 725.516 186.88 725.516C186.481 725.516 186.163 725.604 185.927 725.781C185.691 725.955 185.535 726.174 185.458 726.438L183.406 726.271C183.511 725.785 183.715 725.365 184.021 725.01C184.327 724.653 184.721 724.378 185.203 724.188C185.689 723.993 186.252 723.896 186.891 723.896C187.335 723.896 187.761 723.948 188.167 724.052C188.577 724.156 188.939 724.318 189.255 724.536C189.575 724.755 189.827 725.036 190.011 725.38C190.195 725.72 190.287 726.128 190.287 726.604V732H188.182V730.891H188.12C187.991 731.141 187.82 731.361 187.604 731.552C187.389 731.74 187.13 731.887 186.828 731.995C186.526 732.099 186.177 732.151 185.781 732.151ZM186.417 730.62C186.743 730.62 187.031 730.556 187.281 730.427C187.531 730.295 187.728 730.118 187.87 729.896C188.012 729.674 188.083 729.422 188.083 729.141V728.292C188.014 728.337 187.919 728.378 187.797 728.417C187.679 728.451 187.545 728.484 187.396 728.516C187.247 728.543 187.097 728.569 186.948 728.594C186.799 728.615 186.663 728.634 186.542 728.651C186.281 728.689 186.054 728.75 185.859 728.833C185.665 728.917 185.514 729.03 185.406 729.172C185.299 729.311 185.245 729.484 185.245 729.693C185.245 729.995 185.354 730.226 185.573 730.385C185.795 730.542 186.077 730.62 186.417 730.62Z" fill="white"/>
<path d="M66.6127 508.78H63.7093C63.6563 508.405 63.548 508.071 63.3845 507.779C63.221 507.483 63.0111 507.231 62.7548 507.024C62.4985 506.816 62.2024 506.657 61.8665 506.546C61.5351 506.436 61.1749 506.381 60.786 506.381C60.0834 506.381 59.4713 506.555 58.9499 506.904C58.4284 507.249 58.024 507.753 57.7368 508.416C57.4495 509.074 57.3059 509.874 57.3059 510.815C57.3059 511.783 57.4495 512.596 57.7368 513.255C58.0285 513.913 58.435 514.41 58.9565 514.746C59.4779 515.082 60.0812 515.25 60.7661 515.25C61.1506 515.25 61.5064 515.199 61.8334 515.098C62.1648 514.996 62.4587 514.848 62.715 514.654C62.9713 514.455 63.1834 514.214 63.3514 513.931C63.5237 513.648 63.643 513.326 63.7093 512.963L66.6127 512.976C66.5376 513.6 66.3498 514.201 66.0493 514.779C65.7532 515.354 65.3533 515.869 64.8495 516.324C64.3501 516.775 63.7535 517.133 63.0597 517.398C62.3703 517.659 61.5903 517.789 60.7197 517.789C59.5089 517.789 58.4262 517.515 57.4716 516.967C56.5215 516.419 55.7702 515.626 55.2178 514.587C54.6699 513.549 54.3959 512.291 54.3959 510.815C54.3959 509.335 54.6743 508.076 55.2311 507.037C55.7879 505.999 56.5436 505.207 57.4981 504.664C58.4527 504.116 59.5266 503.842 60.7197 503.842C61.5064 503.842 62.2355 503.952 62.9072 504.173C63.5834 504.394 64.1822 504.717 64.7036 505.141C65.2251 505.561 65.6494 506.076 65.9764 506.686C66.3078 507.296 66.5199 507.994 66.6127 508.78Z" fill="white"/>
<path d="M81.1464 510.815C81.1464 512.296 80.8657 513.555 80.3045 514.594C79.7477 515.632 78.9876 516.426 78.0242 516.974C77.0652 517.517 75.9869 517.789 74.7893 517.789C73.5829 517.789 72.5002 517.515 71.5412 516.967C70.5823 516.419 69.8244 515.626 69.2676 514.587C68.7107 513.549 68.4323 512.291 68.4323 510.815C68.4323 509.335 68.7107 508.076 69.2676 507.037C69.8244 505.999 70.5823 505.207 71.5412 504.664C72.5002 504.116 73.5829 503.842 74.7893 503.842C75.9869 503.842 77.0652 504.116 78.0242 504.664C78.9876 505.207 79.7477 505.999 80.3045 507.037C80.8657 508.076 81.1464 509.335 81.1464 510.815ZM78.2363 510.815C78.2363 509.856 78.0927 509.048 77.8054 508.389C77.5226 507.731 77.1227 507.231 76.6056 506.891C76.0886 506.551 75.4832 506.381 74.7893 506.381C74.0955 506.381 73.4901 506.551 72.9731 506.891C72.456 507.231 72.0539 507.731 71.7666 508.389C71.4838 509.048 71.3424 509.856 71.3424 510.815C71.3424 511.774 71.4838 512.583 71.7666 513.242C72.0539 513.9 72.456 514.399 72.9731 514.74C73.4901 515.08 74.0955 515.25 74.7893 515.25C75.4832 515.25 76.0886 515.08 76.6056 514.74C77.1227 514.399 77.5226 513.9 77.8054 513.242C78.0927 512.583 78.2363 511.774 78.2363 510.815Z" fill="white"/>
<path d="M94.6276 504.028V517.603H92.1485L86.2422 509.059H86.1428V517.603H83.2725V504.028H85.7915L91.6513 512.565H91.7706V504.028H94.6276Z" fill="white"/>
<path d="M96.482 506.394V504.028H107.632V506.394H103.475V517.603H100.638V506.394H96.482Z" fill="white"/>
<path d="M110.149 517.603H107.073L111.76 504.028H115.459L120.139 517.603H117.063L113.662 507.13H113.556L110.149 517.603ZM109.957 512.267H117.222V514.508H109.957V512.267Z" fill="white"/>
<path d="M133.113 508.78H130.209C130.156 508.405 130.048 508.071 129.885 507.779C129.721 507.483 129.511 507.231 129.255 507.024C128.998 506.816 128.702 506.657 128.367 506.546C128.035 506.436 127.675 506.381 127.286 506.381C126.583 506.381 125.971 506.555 125.45 506.904C124.928 507.249 124.524 507.753 124.237 508.416C123.95 509.074 123.806 509.874 123.806 510.815C123.806 511.783 123.95 512.596 124.237 513.255C124.528 513.913 124.935 514.41 125.456 514.746C125.978 515.082 126.581 515.25 127.266 515.25C127.651 515.25 128.006 515.199 128.333 515.098C128.665 514.996 128.959 514.848 129.215 514.654C129.471 514.455 129.683 514.214 129.851 513.931C130.024 513.648 130.143 513.326 130.209 512.963L133.113 512.976C133.038 513.6 132.85 514.201 132.549 514.779C132.253 515.354 131.853 515.869 131.349 516.324C130.85 516.775 130.254 517.133 129.56 517.398C128.87 517.659 128.09 517.789 127.22 517.789C126.009 517.789 124.926 517.515 123.972 516.967C123.022 516.419 122.27 515.626 121.718 514.587C121.17 513.549 120.896 512.291 120.896 510.815C120.896 509.335 121.174 508.076 121.731 507.037C122.288 505.999 123.044 505.207 123.998 504.664C124.953 504.116 126.027 503.842 127.22 503.842C128.006 503.842 128.736 503.952 129.407 504.173C130.083 504.394 130.682 504.717 131.204 505.141C131.725 505.561 132.149 506.076 132.476 506.686C132.808 507.296 133.02 507.994 133.113 508.78Z" fill="white"/>
<path d="M134.654 506.394V504.028H145.804V506.394H141.647V517.603H138.81V506.394H134.654Z" fill="white"/>
<path d="M151.96 504.028H155.5L159.238 513.149H159.398L163.136 504.028H166.676V517.603H163.892V508.767H163.779L160.266 517.537H158.37L154.857 508.734H154.744V517.603H151.96V504.028Z" fill="white"/>
<path d="M169.041 517.603V504.028H178.188V506.394H171.911V509.629H177.718V511.995H171.911V515.237H178.215V517.603H169.041Z" fill="white"/>
<path fill-rule="evenodd" clip-rule="evenodd" d="M53.4546 540.335V541.861H346.992V540.335H53.4546Z" fill="white"/>
<path fill-rule="evenodd" clip-rule="evenodd" d="M74.2687 730.015C74.2215 728.807 74.0745 727.641 73.8415 726.544H76.893C77.3445 727.627 77.6329 728.793 77.7244 730.015H74.2687ZM76.893 735.22H73.8415C74.0745 734.124 74.2215 732.96 74.2687 731.751H77.7244C77.6329 732.972 77.3445 734.14 76.893 735.22ZM71.343 741.061C72.1819 739.945 72.8788 738.549 73.3875 736.956H75.9844C74.8534 738.721 73.2456 740.149 71.343 741.061ZM67.3423 742.051V736.956H71.5958C70.6629 739.658 69.126 741.574 67.3423 742.051ZM67.3423 731.751H72.5331C72.4826 732.972 72.3283 734.14 72.0823 735.22H67.3423V731.751ZM67.3423 726.544H72.0823C72.3283 727.627 72.4808 728.793 72.5331 730.015H67.3423V726.544ZM67.3423 719.716C69.126 720.192 70.6629 722.108 71.5958 724.809H67.3423V719.716ZM75.9844 724.809H73.3875C72.8788 723.217 72.1843 721.819 71.343 720.705C73.2456 721.617 74.8534 723.045 75.9844 724.809ZM65.6061 724.809H61.3532C62.2853 722.108 63.8218 720.192 65.6061 719.716V724.809ZM65.6061 730.015H60.4159C60.4663 728.793 60.6201 727.627 60.8655 726.544H65.6061V730.015ZM65.6061 735.22H60.8655C60.6201 734.14 60.4663 732.972 60.4159 731.751H65.6061V735.22ZM65.6061 742.051C63.8218 741.574 62.2853 739.658 61.3532 736.956H65.6061V742.051ZM56.9633 736.956H59.5614C60.0683 738.549 60.7639 739.945 61.6041 741.061C59.7021 740.149 58.0941 738.721 56.9633 736.956ZM55.2233 731.751H58.6796C58.7263 732.96 58.8745 734.124 59.1062 735.22H56.0546C55.6031 734.14 55.3154 732.972 55.2233 731.751ZM56.0546 726.544H59.1062C58.8745 727.641 58.7263 728.807 58.6796 730.015H55.2233C55.3154 728.793 55.6031 727.627 56.0546 726.544ZM61.6041 720.705C60.7658 721.819 60.0703 723.217 59.5633 724.809H56.9633C58.0941 723.045 59.7021 721.617 61.6041 720.705ZM79.4638 730.015C79.0367 723.518 73.8416 718.324 67.3423 717.897V717.869H65.6061V717.897C59.1062 718.324 53.9117 723.518 53.4838 730.015H53.4546V731.751H53.4838C53.9117 738.248 59.1062 743.44 65.6061 743.867V743.898H67.3423V743.867C73.8416 743.44 79.0367 738.248 79.4638 731.751H79.4944V730.015H79.4638Z" fill="white"/>
<path fill-rule="evenodd" clip-rule="evenodd" d="M77.9229 661.035L72.9782 657.891H72.9527C72.782 657.781 72.5516 657.725 72.2614 657.725C71.8509 657.725 71.4922 657.873 71.1847 658.166L69.7243 659.766C69.69 659.803 69.6345 659.835 69.558 659.862C69.4807 659.891 69.4254 659.905 69.3911 659.905L69.071 659.835C68.8567 659.789 68.5503 659.656 68.1487 659.435C67.7469 659.215 67.248 658.869 66.6502 658.401C66.0523 657.932 65.3685 657.276 64.6007 656.429C63.8141 655.602 63.2076 654.872 62.781 654.238C62.3537 653.604 62.0381 653.067 61.833 652.625C61.5939 652.128 61.4402 651.687 61.3723 651.301C61.3723 651.247 61.3847 651.178 61.4102 651.094C61.4357 651.013 61.4657 650.952 61.5 650.915L62.7555 649.564C62.9771 649.325 63.1228 649.03 63.1907 648.683C63.2593 648.332 63.2162 648.012 63.063 647.717L60.321 642.12C60.2021 641.918 60.0564 641.747 59.8864 641.61C59.7157 641.471 59.5189 641.403 59.2965 641.403C58.9896 641.403 58.7162 641.53 58.4764 641.789L55.0693 645.456C54.8985 645.621 54.7528 645.838 54.6339 646.104C54.5137 646.37 54.4378 646.632 54.4035 646.89C54.4035 646.927 54.3947 647.11 54.378 647.441C54.3605 647.771 54.3947 648.227 54.4794 648.805C54.5655 649.385 54.7273 650.074 54.9671 650.874C55.2056 651.674 55.5637 652.565 56.0426 653.548C56.5209 654.533 57.153 655.602 57.939 656.761C58.7242 657.919 59.7157 659.132 60.9101 660.401C62.4135 662.037 63.8316 663.323 65.1637 664.26C66.4959 665.198 67.6871 665.9 68.7377 666.37C69.789 666.839 70.6764 667.134 71.4026 667.253C72.1282 667.371 72.6538 667.432 72.9782 667.432C73.1152 667.432 73.2255 667.427 73.3114 667.419C73.3961 667.41 73.4477 667.405 73.4646 667.405C73.7043 667.366 73.9472 667.285 74.1952 667.156C74.4429 667.027 74.6435 666.871 74.7967 666.688L78.2051 663.048C78.4953 662.735 78.6142 662.367 78.5638 661.945C78.4953 661.577 78.2816 661.274 77.9229 661.035Z" fill="white"/>
<path d="M66.474 579.106C63.8578 579.106 61.7291 576.979 61.7291 574.364C61.7291 571.748 63.8578 569.621 66.474 569.621C69.0909 569.621 71.2189 571.748 71.2189 574.364C71.2189 576.979 69.0909 579.106 66.474 579.106ZM66.474 564.936C61.2739 564.936 57.0439 569.165 57.0439 574.364C57.0439 580.815 65.4832 590.284 65.8419 590.684C66.18 591.06 66.7691 591.058 67.1061 590.684C67.4655 590.284 75.9045 580.815 75.9045 574.364C75.9045 569.165 71.6741 564.936 66.474 564.936Z" fill="white"/>
</svg>
